<?xml version="1.0" standalone="no"?>
<!DOCTYPE svg PUBLIC "-//W3C//DTD SVG 20010904//EN"
 "http://www.w3.org/TR/2001/REC-SVG-20010904/DTD/svg10.dtd">
<svg version="1.0" xmlns="http://www.w3.org/2000/svg"
 width="512.000000pt" height="512.000000pt" viewBox="0 0 512.000000 512.000000"
 preserveAspectRatio="xMidYMid meet">
<metadata>
Created by potrace 1.13, written by Peter Selinger 2001-2015
</metadata>
<g transform="translate(0.000000,512.000000) scale(0.100000,-0.100000)"
fill="#000000" stroke="none">
<path d="M2325 5105 c-460 -53 -795 -205 -1018 -463 -81 -93 -121 -156 -194
-304 -135 -276 -223 -554 -258 -824 -29 -221 -21 -273 69 -452 l47 -93 -21
-28 c-11 -16 -76 -123 -146 -237 -154 -255 -265 -478 -272 -543 -4 -42 -1 -50
29 -79 43 -42 131 -84 237 -113 69 -19 83 -26 88 -46 8 -29 -2 -95 -28 -197
-12 -48 -18 -97 -15 -122 6 -60 54 -156 120 -244 66 -87 68 -101 36 -237 -28
-118 -28 -191 -1 -234 47 -77 154 -148 264 -174 94 -24 174 -17 517 40 150 25
275 44 276 43 8 -10 36 -113 45 -167 37 -211 -81 -444 -299 -589 l-63 -42
1425 0 1425 0 -130 128 c-413 404 -627 771 -669 1146 -22 202 12 293 231 621
168 252 225 345 300 487 169 326 247 609 265 973 13 254 -41 482 -179 750
-259 503 -676 843 -1176 959 -197 46 -678 68 -905 41z m942 -460 c59 -14 113
-27 120 -30 11 -4 6 -33 -23 -150 -4 -16 8 -27 62 -59 37 -21 89 -58 114 -82
26 -24 51 -44 55 -44 5 0 40 19 78 42 58 35 70 39 81 27 10 -11 106 -163 130
-205 3 -7 -23 -30 -68 -58 l-74 -46 19 -61 c10 -33 22 -98 25 -144 l7 -84 76
-16 c42 -9 79 -20 84 -24 4 -4 -6 -66 -23 -138 l-31 -130 -86 20 c-58 14 -88
17 -90 10 -10 -28 -82 -138 -120 -182 l-42 -49 46 -71 c25 -40 44 -73 42 -75
-19 -16 -219 -136 -227 -136 -6 0 -27 26 -46 58 -20 31 -39 63 -44 70 -6 9
-18 9 -54 -3 -25 -9 -90 -22 -144 -28 l-98 -13 -18 -79 c-10 -43 -20 -80 -21
-81 -3 -4 -259 55 -264 60 -2 2 5 40 15 84 21 90 23 87 -46 121 -23 12 -72 47
-108 77 l-65 55 -52 -32 c-29 -17 -62 -38 -73 -46 -20 -13 -25 -9 -93 101 -39
62 -71 116 -71 119 0 2 32 24 70 47 39 23 70 47 70 54 0 6 -7 34 -16 61 -8 28
-18 88 -22 135 l-7 85 -80 18 c-44 10 -82 20 -84 22 -5 6 50 248 59 258 3 4
43 -1 88 -11 l82 -19 31 58 c17 32 55 86 83 121 l53 63 -44 68 c-24 37 -43 71
-43 75 1 7 205 135 224 139 6 2 24 -18 39 -45 16 -26 36 -57 46 -70 l17 -23
74 20 c41 12 105 21 141 21 l67 0 17 73 c23 97 22 97 39 97 8 0 63 -11 123
-25z m37 -1720 c8 -49 26 -65 74 -65 16 0 50 -6 76 -14 l46 -14 31 45 c35 50
34 51 120 -8 59 -40 60 -41 45 -65 -49 -76 -49 -65 -9 -114 19 -25 42 -60 51
-78 12 -25 21 -32 37 -28 11 2 36 8 56 11 l36 7 16 -83 c19 -93 19 -93 -50
-104 -40 -6 -43 -8 -43 -39 0 -17 -7 -58 -15 -89 -8 -32 -15 -60 -15 -62 0 -2
20 -18 45 -35 l44 -30 -41 -66 c-23 -36 -47 -68 -54 -71 -7 -2 -30 8 -53 22
l-40 27 -38 -29 c-21 -16 -55 -40 -76 -53 -41 -24 -41 -23 -24 -124 1 -5 -27
-15 -63 -22 -36 -8 -75 -16 -87 -19 -19 -4 -22 0 -28 45 -4 28 -11 53 -16 56
-5 3 -35 10 -67 15 -31 5 -71 12 -88 15 -28 5 -34 2 -59 -39 l-29 -45 -60 39
c-34 22 -67 43 -75 48 -12 7 -9 17 16 56 l31 48 -36 47 c-21 26 -44 61 -54 78
-15 29 -18 30 -55 21 -69 -16 -69 -15 -87 62 -9 39 -16 77 -16 85 0 7 23 18
55 25 l55 12 0 42 c0 24 7 62 15 85 20 57 20 55 -22 82 -20 13 -41 26 -47 30
-10 7 77 148 92 148 4 0 25 -12 46 -26 26 -18 43 -24 52 -18 6 5 33 23 58 39
93 60 90 55 78 110 -6 28 -9 51 -7 53 6 7 160 39 166 36 4 -2 10 -24 13 -49z"/>
<path d="M2920 4251 c-250 -79 -399 -343 -334 -594 46 -177 181 -311 364 -359
216 -56 457 58 555 263 56 119 67 213 39 328 -44 177 -165 305 -344 363 -71
23 -205 22 -280 -1z"/>
<path d="M3263 2710 c-93 -19 -173 -78 -218 -162 -23 -42 -30 -68 -33 -134 -4
-72 -1 -88 23 -143 80 -178 293 -242 458 -138 171 107 197 347 54 490 -70 70
-188 106 -284 87z"/>
</g>
</svg>
