<?xml version="1.0" standalone="no"?>
<!DOCTYPE svg PUBLIC "-//W3C//DTD SVG 20010904//EN"
 "http://www.w3.org/TR/2001/REC-SVG-20010904/DTD/svg10.dtd">
<svg version="1.0" xmlns="http://www.w3.org/2000/svg"
 width="500.000000pt" height="500.000000pt" viewBox="0 0 500.000000 500.000000"
 preserveAspectRatio="xMidYMid meet">
<metadata>
Created by potrace 1.13, written by Peter Selinger 2001-2015
</metadata>
<g transform="translate(0.000000,500.000000) scale(0.100000,-0.100000)"
fill="#000000" stroke="none">
<path d="M2390 4550 c-204 -23 -411 -135 -546 -297 -65 -79 -147 -240 -169
-333 -81 -344 59 -702 350 -895 154 -102 276 -138 465 -139 154 0 228 17 365
85 210 103 354 268 431 494 23 68 28 101 32 220 3 119 1 154 -17 229 -97 408
-490 681 -911 636z"/>
<path d="M945 3321 c-96 -43 -165 -167 -150 -269 11 -79 42 -126 158 -243 195
-195 357 -310 482 -344 46 -13 89 -16 157 -13 l94 4 -34 -99 c-49 -148 -72
-301 -72 -480 0 -173 17 -292 59 -406 l28 -76 -192 -162 c-275 -232 -272 -221
-167 -574 38 -130 77 -249 85 -265 92 -175 356 -140 407 54 13 52 7 90 -50
277 -21 71 -38 130 -37 130 1 1 57 48 124 104 l121 102 43 -22 c127 -64 260
-98 425 -106 195 -10 380 24 528 98 44 22 83 36 90 31 31 -18 246 -206 246
-215 0 -5 -20 -78 -45 -161 -25 -84 -45 -171 -45 -192 0 -50 39 -134 76 -163
100 -79 239 -65 317 31 23 28 45 92 103 288 77 261 80 281 64 340 -16 58 -45
88 -248 260 -144 121 -191 167 -187 179 99 255 98 641 -4 937 l-28 82 111 3
c106 4 115 6 196 45 112 54 226 141 382 292 151 147 178 191 178 291 0 74 -24
138 -68 184 -102 108 -300 103 -391 -10 -17 -21 -59 -74 -93 -118 -92 -117
-211 -232 -245 -237 -42 -6 -224 10 -343 30 l-104 18 -81 -33 c-120 -48 -189
-64 -310 -70 -134 -6 -262 17 -386 71 l-82 35 -116 -19 c-135 -23 -310 -39
-349 -32 -32 5 -193 165 -265 262 -88 119 -96 128 -148 154 -66 33 -171 36
-234 7z m2357 -1516 c-10 -230 -79 -403 -217 -541 -68 -68 -97 -90 -176 -127
-205 -100 -442 -121 -678 -61 -260 65 -432 224 -510 469 -30 93 -51 213 -51
291 l0 44 818 -2 817 -3 -3 -70z"/>
</g>
</svg>
