<?xml version="1.0" standalone="no"?>
<!DOCTYPE svg PUBLIC "-//W3C//DTD SVG 20010904//EN"
 "http://www.w3.org/TR/2001/REC-SVG-20010904/DTD/svg10.dtd">
<svg version="1.0" xmlns="http://www.w3.org/2000/svg"
 width="256.000000pt" height="256.000000pt" viewBox="0 0 256.000000 256.000000"
 preserveAspectRatio="xMidYMid meet">
<metadata>
Created by potrace 1.13, written by Peter Selinger 2001-2015
</metadata>
<g transform="translate(0.000000,256.000000) scale(0.100000,-0.100000)"
fill="#000000" stroke="none">
<path d="M662 1894 c-122 -61 -236 -260 -297 -519 -52 -220 -71 -519 -40 -640
27 -104 76 -150 159 -150 123 2 295 140 393 315 37 68 110 105 249 127 125 20
268 8 365 -32 83 -33 98 -47 139 -124 47 -87 164 -209 238 -249 147 -78 242
-39 295 120 32 96 29 335 -6 518 -77 398 -239 659 -410 660 -21 0 -62 -11 -91
-25 -98 -46 -192 -60 -411 -60 -228 0 -349 18 -411 60 -49 33 -105 33 -172 -1z
m912 -225 c33 -15 59 -71 51 -109 -8 -39 -58 -80 -96 -80 -54 0 -99 67 -85
126 15 60 74 88 130 63z m-562 -44 c21 -14 47 -43 58 -65 22 -44 27 -128 9
-163 -17 -33 -60 -77 -92 -93 -30 -16 -100 -21 -138 -9 -42 13 -91 56 -110 99
-77 169 118 334 273 231z m772 -166 c36 -17 60 -68 52 -112 -14 -77 -110 -104
-167 -48 -78 79 13 206 115 160z"/>
</g>
</svg>
