<?xml version="1.0" standalone="no"?>
<!DOCTYPE svg PUBLIC "-//W3C//DTD SVG 20010904//EN"
 "http://www.w3.org/TR/2001/REC-SVG-20010904/DTD/svg10.dtd">
<svg version="1.0" xmlns="http://www.w3.org/2000/svg"
 width="614.000000pt" height="460.000000pt" viewBox="0 0 614.000000 460.000000"
 preserveAspectRatio="xMidYMid meet">
<metadata>
Created by potrace 1.13, written by Peter Selinger 2001-2015
</metadata>
<g transform="translate(0.000000,460.000000) scale(0.100000,-0.100000)"
fill="#000000" stroke="none">
<path d="M2210 3317 c0 -22 -3 -23 -67 -19 -89 4 -136 -21 -172 -93 -22 -42
-26 -65 -30 -157 -8 -240 75 -477 196 -562 58 -40 131 -45 244 -17 55 14 85
18 87 11 2 -6 30 -46 61 -88 72 -97 165 -182 246 -224 l63 -32 -18 -36 c-34
-67 -74 -224 -94 -367 l-6 -43 335 0 335 0 0 24 c0 74 -64 329 -99 394 -10 19
-5 24 58 57 88 46 179 128 252 227 31 42 59 82 61 88 2 7 32 3 87 -11 113 -28
186 -23 244 17 121 85 204 322 196 562 -4 92 -8 115 -30 157 -36 72 -83 97
-171 93 -65 -4 -68 -3 -68 19 l0 23 -855 0 -855 0 0 -23z m-13 -108 c29 -9 31
-15 48 -102 32 -166 85 -334 172 -534 6 -15 -53 -32 -137 -39 -57 -5 -69 -3
-100 18 -49 33 -96 107 -124 197 -63 201 -58 420 11 460 23 14 92 14 130 0z
m1864 1 c71 -38 77 -258 13 -461 -28 -90 -75 -164 -124 -197 -31 -21 -43 -23
-100 -18 -84 7 -143 24 -137 39 87 201 140 368 172 534 16 83 20 93 44 102 35
13 108 13 132 1z m-1526 -215 c59 -181 111 -299 186 -420 43 -71 49 -86 39
-104 -6 -13 -21 -21 -36 -21 -58 0 -214 313 -290 582 -23 82 -25 99 -14 113 7
9 24 15 38 13 22 -3 29 -18 77 -163z"/>
<path d="M2571 1611 l-31 -29 0 -156 0 -156 520 0 520 0 0 146 c0 150 -5 175
-44 206 -19 16 -60 18 -477 18 l-457 0 -31 -29z"/>
</g>
</svg>
