<?xml version="1.0" standalone="no"?>
<!DOCTYPE svg PUBLIC "-//W3C//DTD SVG 20010904//EN"
 "http://www.w3.org/TR/2001/REC-SVG-20010904/DTD/svg10.dtd">
<svg version="1.0" xmlns="http://www.w3.org/2000/svg"
 width="1200.000000pt" height="1200.000000pt" viewBox="0 0 1200.000000 1200.000000"
 preserveAspectRatio="xMidYMid meet">
<metadata>
Created by potrace 1.13, written by Peter Selinger 2001-2015
</metadata>
<g transform="translate(0.000000,1200.000000) scale(0.100000,-0.100000)"
fill="#000000" stroke="none">
<path d="M0 6000 l0 -6000 6000 0 6000 0 0 6000 0 6000 -6000 0 -6000 0 0
-6000z m8355 5180 c442 -28 777 -67 975 -115 267 -65 296 -83 334 -205 64
-200 86 -447 93 -1035 8 -630 -10 -1066 -78 -1875 -60 -722 -153 -1611 -205
-1951 l-16 -106 -156 -22 c-327 -44 -621 -64 -1272 -86 -912 -31 -1048 -45
-1217 -126 -76 -36 -168 -119 -223 -201 -73 -110 -93 -204 -120 -568 -63 -871
-150 -1316 -323 -1655 -59 -115 -154 -219 -272 -297 -181 -119 -659 -361
-1210 -613 -506 -231 -913 -387 -1307 -499 -227 -65 -274 -72 -354 -56 -192
39 -365 226 -425 458 -32 124 -27 180 50 623 38 219 48 365 32 483 -16 118
-28 151 -128 358 -48 98 -85 180 -82 182 3 3 51 25 108 49 l102 44 -126 144
c-166 189 -188 223 -181 272 4 21 39 102 79 180 73 142 151 323 213 494 l33
91 -87 60 c-48 32 -136 87 -197 122 -163 94 -296 183 -359 241 -53 48 -56 54
-56 98 0 71 20 100 379 560 325 416 456 613 581 874 85 177 136 325 155 453 8
55 19 221 25 369 13 366 28 444 138 725 227 582 676 1146 1325 1667 226 182
560 379 826 488 521 213 1136 338 1846 374 226 12 918 12 1100 1z m465 -5455
c0 -3 -7 -22 -16 -43 -29 -69 -44 -161 -59 -353 -17 -214 -24 -238 -101 -346
-25 -35 -100 -121 -167 -190 -108 -113 -119 -128 -102 -137 10 -6 39 -29 63
-51 130 -117 252 -347 252 -476 0 -95 -121 -240 -303 -364 l-88 -59 108 -27
c186 -45 277 -103 277 -174 0 -66 -73 -115 -231 -156 -42 -10 -89 -19 -104
-19 -15 0 -30 -4 -33 -8 -3 -5 33 -35 81 -67 104 -71 220 -183 258 -249 76
-131 -3 -263 -256 -432 l-103 -69 45 -8 c83 -15 204 -57 256 -87 91 -52 110
-113 60 -188 -33 -51 -153 -130 -269 -178 l-88 -37 117 -58 c240 -118 308
-211 245 -334 -36 -71 -165 -184 -307 -269 -50 -31 -54 -36 -34 -40 205 -39
279 -64 327 -112 65 -65 31 -142 -90 -202 -61 -30 -224 -82 -257 -82 -8 0 74
-90 184 -200 l200 -200 -1595 0 -1595 0 198 198 197 197 -85 18 c-132 27 -222
64 -272 112 -48 47 -54 73 -24 122 34 55 149 107 295 135 36 7 66 15 66 19 0
3 -37 29 -82 57 -169 104 -283 224 -295 309 -12 90 66 171 258 267 l126 63
-97 42 c-116 50 -211 112 -254 164 -38 48 -43 112 -11 147 47 52 152 99 290
129 l79 17 -92 49 c-98 52 -166 106 -160 127 2 7 62 48 133 90 291 174 361
240 454 432 108 220 176 442 226 726 34 199 50 337 85 748 35 403 55 577 76
635 36 102 140 216 251 275 117 62 163 68 724 97 762 38 1239 54 1239 40z"/>
<path d="M6740 10473 c-75 -12 -183 -49 -248 -83 l-74 -38 -46 20 c-135 57
-309 66 -438 23 -106 -36 -180 -82 -253 -161 l-61 -65 -70 17 c-103 25 -268
16 -375 -21 -168 -56 -298 -148 -356 -251 -30 -52 -31 -53 -87 -59 -147 -16
-258 -74 -319 -167 -28 -42 -38 -112 -20 -148 5 -11 -9 -24 -60 -50 -187 -96
-337 -277 -397 -480 -24 -79 -31 -206 -16 -282 32 -168 146 -282 292 -296 49
-4 58 -8 52 -21 -16 -38 -16 -142 0 -186 34 -87 159 -174 308 -215 179 -48
568 -104 801 -116 75 -4 137 -9 137 -11 0 -2 -11 -21 -24 -42 -31 -48 -56
-132 -56 -186 0 -75 28 -135 94 -200 107 -105 269 -181 466 -217 58 -10 139
-26 180 -35 172 -35 334 -122 402 -214 77 -104 184 -353 290 -676 l63 -193
135 3 134 2 33 145 c18 80 45 196 59 258 l26 113 62 -59 c261 -249 602 -282
831 -80 94 83 189 262 217 413 12 64 14 66 38 61 14 -3 54 -13 90 -21 82 -18
219 -19 285 -1 104 27 180 82 237 170 57 89 82 178 76 279 -3 45 -8 89 -12 97
-5 12 9 23 56 45 91 43 202 157 250 255 58 121 73 193 72 365 0 303 -88 547
-262 727 -62 65 -64 69 -48 87 28 31 56 118 56 175 0 114 -115 269 -253 341
l-57 30 0 60 c0 69 -24 129 -66 169 -46 44 -138 85 -218 99 l-75 12 -39 60
c-104 160 -274 248 -448 232 -35 -4 -84 -15 -109 -26 l-44 -19 -29 51 c-58
103 -170 183 -291 208 -69 14 -243 7 -297 -13 -39 -14 -42 -14 -70 10 -45 37
-144 81 -220 97 -63 13 -243 18 -304 8z"/>
</g>
</svg>
