<?xml version="1.0" standalone="no"?>
<!DOCTYPE svg PUBLIC "-//W3C//DTD SVG 20010904//EN"
 "http://www.w3.org/TR/2001/REC-SVG-20010904/DTD/svg10.dtd">
<svg version="1.0" xmlns="http://www.w3.org/2000/svg"
 width="256.000000pt" height="256.000000pt" viewBox="0 0 256.000000 256.000000"
 preserveAspectRatio="xMidYMid meet">
<metadata>
Created by potrace 1.13, written by Peter Selinger 2001-2015
</metadata>
<g transform="translate(0.000000,256.000000) scale(0.100000,-0.100000)"
fill="#000000" stroke="none">
<path d="M5 2551 c-3 -5 8 -79 24 -163 16 -84 37 -196 46 -248 52 -287 193
-567 335 -665 43 -29 43 -30 17 -33 -27 -3 -27 -4 -27 -83 l0 -79 189 0 190 0
73 -34 c48 -22 94 -54 134 -93 34 -33 87 -72 118 -89 l57 -29 -3 -230 c-3
-215 -4 -233 -25 -272 -27 -50 -83 -98 -138 -117 -36 -13 -9 -14 285 -14 294
0 321 1 285 14 -55 19 -111 67 -138 117 -21 39 -22 57 -25 272 l-3 230 57 29
c31 17 84 56 118 89 50 48 84 70 186 117 310 142 406 201 486 298 102 124 191
332 233 545 24 120 41 252 41 319 l0 48 -280 0 -280 0 0 40 0 40 -974 0 c-593
0 -977 -4 -981 -9z m2338 -268 c-38 -269 -127 -508 -226 -611 -80 -83 -260
-202 -307 -202 -19 0 -20 2 -6 28 24 46 86 232 107 318 30 126 49 278 49 397
l0 107 194 0 195 0 -6 -37z"/>
<path d="M800 160 l0 -160 440 0 440 0 0 160 0 160 -440 0 -440 0 0 -160z"/>
</g>
</svg>
