<svg width="580" height="400" xmlns="http://www.w3.org/2000/svg">
 <!-- Created with Method Draw - http://github.com/duopixel/Method-Draw/ -->

 <g>
  <title>background</title>
  <rect fill="none" id="canvas_background" height="402" width="582" y="-1" x="-1"/>
  <g display="none" overflow="visible" y="0" x="0" height="100%" width="100%" id="canvasGrid">
   <rect fill="url(#gridpattern)" stroke-width="0" y="0" x="0" height="100%" width="100%"/>
  </g>
 </g>
 <g>
  <title>Layer 1</title>
  <metadata transform="matrix(0.2712673404150543,0,0,0.2712673404150543,0,0) ">Created by potrace 1.13, written by Peter Selinger 2001-2015</metadata>
  <g stroke="null" id="svg_6">
   <g id="svg_4" fill="#000000" transform="matrix(0.2938284509353892,0,0,-0.2771267314619376,-2853.6907654362435,-1130.7556991310666) ">
    <path stroke="null" id="svg_5" d="m10114.867239,-4151.191836c-122,-61 -236,-260 -297,-519c-52,-220 -71,-519 -40,-640c27,-104 76,-150 159,-150c123,2 295,140 393,315c37,68 110,105 249,127c125,20 268,8 365,-32c83,-33 98,-47 139,-124c47,-87 164,-209 238,-249c147,-78 242,-39 295,120c32,96 29,335 -6,518c-77,398 -239,659 -410,660c-21,0 -62,-11 -91,-25c-98,-46 -192,-60 -411,-60c-228,0 -349,18 -411,60c-49,33 -105,33 -172,-1zm912,-225c33,-15 59,-71 51,-109c-8,-39 -58,-80 -96,-80c-54,0 -99,67 -85,126c15,60 74,88 130,63zm-562,-44c21,-14 47,-43 58,-65c22,-44 27,-128 9,-163c-17,-33 -60,-77 -92,-93c-30,-16 -100,-21 -138,-9c-42,13 -91,56 -110,99c-77,169 118,334 273,231zm772,-166c36,-17 60,-68 52,-112c-14,-77 -110,-104 -167,-48c-78,79 13,206 115,160z"/>
   </g>
  </g>
 </g>
</svg>