<?xml version="1.0" standalone="no"?>
<!DOCTYPE svg PUBLIC "-//W3C//DTD SVG 20010904//EN"
 "http://www.w3.org/TR/2001/REC-SVG-20010904/DTD/svg10.dtd">
<svg version="1.0" xmlns="http://www.w3.org/2000/svg"
 width="225.000000pt" height="225.000000pt" viewBox="0 0 225.000000 225.000000"
 preserveAspectRatio="xMidYMid meet">
<metadata>
Created by potrace 1.13, written by Peter Selinger 2001-2015
</metadata>
<g transform="translate(0.000000,225.000000) scale(0.100000,-0.100000)"
fill="#000000" stroke="none">
<path d="M655 2238 c-11 -6 -23 -16 -27 -22 -4 -6 -8 -77 -8 -158 l0 -148 70
0 70 0 0 145 c0 142 -1 147 -25 170 -26 27 -49 31 -80 13z"/>
<path d="M1092 2240 c-34 -14 -42 -50 -42 -196 l0 -134 76 0 75 0 -3 150 c-3
160 -7 173 -58 184 -14 3 -35 1 -48 -4z"/>
<path d="M1515 2225 c-24 -23 -25 -28 -25 -170 l0 -145 70 0 70 0 0 148 c0 81
-4 152 -8 158 -10 15 -47 34 -67 34 -9 0 -27 -11 -40 -25z"/>
<path d="M636 1661 c-16 -11 -38 -34 -50 -53 -21 -32 -21 -43 -21 -483 0 -445
0 -450 22 -485 45 -72 28 -70 538 -70 435 0 459 1 489 19 17 11 40 35 51 53
19 32 20 51 20 483 0 432 -1 451 -20 483 -11 18 -34 42 -51 53 -30 18 -54 19
-490 19 -435 0 -461 -1 -488 -19z"/>
<path d="M34 1622 c-15 -10 -34 -47 -34 -67 0 -9 11 -27 25 -40 23 -24 28 -25
170 -25 l145 0 0 70 0 70 -147 0 c-82 0 -153 -4 -159 -8z"/>
<path d="M1910 1560 l0 -70 145 0 c142 0 147 1 170 25 14 13 25 31 25 40 0 20
-19 57 -34 67 -6 4 -77 8 -158 8 l-148 0 0 -70z"/>
<path d="M41 1187 c-50 -25 -47 -107 4 -127 15 -6 87 -10 161 -10 l134 0 0 75
0 75 -137 0 c-90 0 -147 -5 -162 -13z"/>
<path d="M1910 1125 l0 -76 150 3 c169 3 184 10 184 73 0 63 -15 70 -184 73
l-150 3 0 -76z"/>
<path d="M25 735 c-14 -13 -25 -31 -25 -40 0 -20 19 -57 34 -67 6 -4 77 -8
159 -8 l147 0 0 70 0 70 -145 0 c-142 0 -147 -1 -170 -25z"/>
<path d="M1910 690 l0 -70 148 0 c81 0 152 4 158 8 15 10 34 47 34 67 0 9 -11
27 -25 40 -23 24 -28 25 -170 25 l-145 0 0 -70z"/>
<path d="M620 193 c0 -82 4 -153 8 -159 10 -15 47 -34 67 -34 9 0 27 11 40 25
24 23 25 28 25 170 l0 145 -70 0 -70 0 0 -147z"/>
<path d="M1052 190 c3 -169 10 -184 73 -184 63 0 70 15 73 184 l3 150 -76 0
-77 0 4 -150z"/>
<path d="M1490 195 c0 -142 1 -147 25 -170 13 -14 31 -25 40 -25 20 0 57 19
67 34 4 6 8 77 8 159 l0 147 -70 0 -70 0 0 -145z"/>
</g>
</svg>
