<?xml version="1.0" standalone="no"?>
<!DOCTYPE svg PUBLIC "-//W3C//DTD SVG 20010904//EN"
 "http://www.w3.org/TR/2001/REC-SVG-20010904/DTD/svg10.dtd">
<svg version="1.0" xmlns="http://www.w3.org/2000/svg"
 width="128.000000pt" height="128.000000pt" viewBox="0 0 128.000000 128.000000"
 preserveAspectRatio="xMidYMid meet">
<metadata>
Created by potrace 1.13, written by Peter Selinger 2001-2015
</metadata>
<g transform="translate(0.000000,128.000000) scale(0.100000,-0.100000)"
fill="#000000" stroke="none">
<path d="M532 1269 c-40 -5 -93 -17 -117 -28 -60 -27 -75 -59 -75 -166 l0 -85
150 0 c143 0 150 -1 150 -20 0 -19 -7 -20 -230 -20 -257 0 -275 -3 -327 -63
-42 -48 -54 -91 -60 -210 -9 -159 24 -266 96 -314 28 -19 48 -23 107 -23 l74
0 0 79 c0 115 26 176 93 217 28 17 57 20 239 24 229 6 236 8 286 80 21 31 22
43 22 217 0 194 -2 207 -48 256 -47 50 -207 75 -360 56z"/>
<path d="M978 852 c-3 -88 -6 -103 -30 -138 -52 -74 -67 -78 -300 -84 -229 -6
-236 -7 -286 -81 -22 -33 -23 -39 -20 -226 l3 -192 34 -35 c91 -94 314 -113
468 -41 74 34 93 68 93 168 l0 77 -150 0 c-143 0 -150 1 -150 20 0 19 7 20
245 20 291 0 289 -1 335 94 60 122 63 275 8 414 -33 81 -68 102 -169 102 l-77
0 -4 -98z"/>
</g>
</svg>
