<svg width="350" height="370" xmlns="http://www.w3.org/2000/svg">
 <!-- Created with Method Draw - http://github.com/duopixel/Method-Draw/ -->

 <g>
  <title>background</title>
  <rect fill="none" id="canvas_background" height="372" width="352" y="-1" x="-1"/>
  <g display="none" overflow="visible" y="0" x="0" height="100%" width="100%" id="canvasGrid">
   <rect fill="url(#gridpattern)" stroke-width="0" y="0" x="0" height="100%" width="100%"/>
  </g>
 </g>
 <g>
  <title>Layer 1</title>
  <g stroke="null" id="svg_5">
   <path stroke="#000000" id="svg_4" stroke-width="0.09375" fill="#000000" d="m258.646092,8.243301c-32.708486,-0.039384 -65.654796,1.933909 -96.460228,10.491074c-14.042362,3.428989 -26.788507,9.225613 -38.99456,15.430451c-27.652652,16.328519 -53.144941,36.657526 -64.270813,62.456586c-6.265054,12.328032 -0.540091,26.288916 -7.237218,38.535305c-8.85749,18.614512 -27.544634,32.983609 -42.55916,48.74063c-2.160363,1.959422 -4.968836,5.551697 -1.512254,7.674404c8.533436,5.878267 19.767326,9.062328 28.840852,14.45074c-3.456582,7.266191 -7.129199,14.45074 -12.098035,21.227075c-1.296218,1.87778 -3.240545,4.4087 -1.080182,6.368122c3.672618,3.918845 8.317399,7.266191 12.42209,11.02175c-3.132527,0.979711 -6.265054,2.041065 -9.505599,3.102419c2.808472,4.4087 6.157036,8.572473 8.317399,13.226101c4.536763,12.001462 -2.592436,24.247851 -3.348563,36.330955c0.648109,10.123682 12.638126,22.288429 27.544634,18.85944c34.673833,-6.694693 66.971267,-18.85944 99.052665,-30.534331c10.369745,-4.653628 23.007871,-8.16426 28.624816,-16.736732c10.477763,-15.675378 11.449926,-33.555107 13.718308,-50.700052c1.512254,-8.16426 -0.540091,-18.043014 7.777308,-24.492779c4.536763,-4.571985 12.42209,-6.28648 19.551289,-7.102906c34.025724,-2.122707 68.59154,-0.898069 102.401228,-5.061841c3.024509,-13.307743 4.212709,-26.778772 6.373072,-40.168157c4.428745,-35.024674 8.641454,-70.212633 6.049018,-105.318949c-0.756127,-6.204837 -1.1882,-12.57296 -4.104691,-18.451227c-0.648109,-1.469567 -2.160363,-2.694206 -4.212709,-3.184061c-16.958853,-4.327058 -35.105906,-4.816913 -52.712868,-5.878267c-7.493772,-0.168388 -15.027683,-0.276654 -22.575798,-0.285749zm-40.263774,23.125265c12.856366,0 17.606962,4.592396 17.606962,4.592396c0,0 7.723051,-2.719637 17.12088,-0.489856c8.880206,2.109261 11.503935,8.021385 11.503935,8.021385c0,0 6.416182,-3.095169 15.338581,-0.653141c8.930035,2.442028 12.476099,9.001096 12.476099,9.001096c0,0 6.21772,-0.592603 12.341076,3.122829c4.543644,2.761683 3.105522,7.8581 3.105522,7.8581c0,0 7.565906,1.743004 12.098035,7.939742c4.221555,5.767037 -1.7823,10.633948 -1.7823,10.633948c0,0 12.471616,6.345295 14.258399,22.94157c2.177873,20.248833 -16.769821,24.145798 -16.769821,24.145798c0,0 3.720837,6.431681 -2.889486,13.430207c-8.995246,9.524393 -27.085557,3.939255 -27.085557,3.939255c0,0 -2.389027,17.682047 -21.441607,19.961615c-16.314924,1.949421 -27.193575,-8.756168 -27.193575,-8.756168l-5.265886,17.28782l-11.503935,0c0,0 -10.355648,-26.076417 -17.498944,-30.473099c-7.147109,-4.39407 -18.228067,-5.65375 -18.228067,-5.65375c0,0 -15.035082,-0.69944 -24.682153,-7.286602c-9.643225,-6.592378 -0.702118,-14.654846 -0.702118,-14.654846c0,0 -12.160373,0.476352 -36.807192,-3.184061c-24.642974,-3.663026 -17.12088,-14.409918 -17.12088,-14.409918c0,0 -6.390474,0.780144 -11.746976,-3.857613c-3.807446,-3.296197 -6.589011,-11.410296 0.351059,-20.798451c6.219222,-8.408175 17.147885,-11.287089 17.147885,-11.287089c0,0 -4.094872,-3.552865 4.428745,-8.450009c4.451613,-2.557267 12.341076,-2.449278 12.341076,-2.449278c0,0 1.939693,-5.672495 13.772317,-9.327667c13.404677,-4.137288 22.305753,-0.653141 22.305753,-0.653141c0,0 3.658932,-5.416072 14.015358,-7.8581c10.36025,-2.439391 20.604466,1.714495 20.604466,1.714495c0,0 7.042148,-4.347468 19.902348,-4.347468zm84.119152,155.549556c-23.872016,0.244928 -47.636014,1.306282 -71.400012,2.20435c-11.017854,-0.163285 -23.007871,4.816913 -25.384271,13.471028c-4.320727,23.023212 -2.268382,47.597634 -17.066871,68.743066c-4.968836,7.511119 -15.214997,10.727266 -23.763998,14.675257c-3.59626,1.660774 10.585781,6.470176 10.585781,6.470176c0,0 -16.70447,1.682858 -17.282908,6.531408c-0.646716,5.420848 17.282908,9.797112 17.282908,9.797112c0,0 -16.772425,4.367977 -17.282908,9.797112c-0.577552,6.142389 17.282908,13.062815 17.282908,13.062815c0,0 -17.282908,1.66319 -17.282908,6.531408c0,4.868226 17.282908,6.531408 17.282908,6.531408l-17.282908,13.062815l138.263261,0l-17.282908,-13.062815c0,0 17.471086,-2.312437 17.174889,-7.266191c-0.283062,-4.73403 -17.174889,-5.796624 -17.174889,-5.796624c0,0 17.860459,-6.920426 17.282908,-13.062815c-0.510483,-5.429135 -17.282908,-9.797112 -17.282908,-9.797112c0,0 17.929612,-4.376264 17.282908,-9.797112c-0.578448,-4.84855 -17.282908,-6.531408 -17.282908,-6.531408c0,0 17.157995,-6.905657 17.282908,-13.062815c0.12731,-6.27554 -17.066871,-13.715956 -17.066871,-13.715956c0,0 16.954133,-1.153773 17.066871,-5.878267c0.116141,-4.867434 -17.282908,-6.531408 -17.282908,-6.531408c0,0 16.268822,-6.95283 17.282908,-13.062815c1.167514,-7.034416 -10.477763,-17.879729 -14.366417,-18.287942c5.400909,-4.980198 12.962181,-9.062328 15.98669,-15.267165c1.620273,-6.531408 0.108018,-13.634314 4.428745,-19.757508z"/>
  </g>
 </g>
</svg>