<?xml version="1.0" standalone="no"?>
<!DOCTYPE svg PUBLIC "-//W3C//DTD SVG 20010904//EN"
 "http://www.w3.org/TR/2001/REC-SVG-20010904/DTD/svg10.dtd">
<svg version="1.0" xmlns="http://www.w3.org/2000/svg"
 width="200.000000pt" height="200.000000pt" viewBox="0 0 200.000000 200.000000"
 preserveAspectRatio="xMidYMid meet">
<metadata>
Created by potrace 1.13, written by Peter Selinger 2001-2015
</metadata>
<g transform="translate(0.000000,200.000000) scale(0.100000,-0.100000)"
fill="#000000" stroke="none">
<path d="M945 1974 c-92 -15 -205 -48 -273 -81 -100 -49 -228 -174 -289 -283
-49 -88 -97 -225 -114 -328 -11 -66 -10 -77 5 -103 l18 -30 -54 -82 c-152
-230 -156 -248 -68 -283 60 -24 66 -35 52 -87 -12 -41 -1 -62 35 -72 28 -7 28
-7 5 -16 -38 -15 -39 -39 -3 -70 l33 -27 -17 -47 c-54 -141 10 -225 160 -211
33 3 85 8 117 12 65 8 103 1 112 -21 3 -8 10 -55 16 -103 6 -48 13 -95 16
-104 5 -17 36 -18 475 -18 258 0 469 2 469 5 0 3 -8 22 -19 43 -58 113 -81
271 -62 417 15 114 43 175 123 268 115 136 171 251 196 406 37 226 -51 484
-216 631 -70 62 -210 133 -317 161 -79 21 -325 34 -400 23z m258 -165 c11 -7
45 -12 75 -13 47 -1 58 -6 79 -31 21 -24 32 -29 64 -26 34 2 45 -3 75 -33 20
-20 47 -39 60 -42 27 -7 54 -39 54 -65 0 -9 11 -24 23 -32 34 -22 53 -71 39
-102 -8 -18 -8 -26 2 -35 29 -24 58 -112 58 -179 1 -73 -16 -117 -55 -148 -17
-13 -25 -32 -29 -68 -8 -69 -43 -99 -108 -93 l-46 5 -17 -48 c-23 -63 -66 -99
-119 -99 -41 0 -108 32 -108 51 0 6 -4 8 -9 5 -4 -3 -14 -33 -20 -66 -11 -57
-14 -60 -41 -60 -27 0 -30 5 -55 82 -51 156 -65 172 -183 202 -34 8 -73 23
-86 31 -35 23 -51 67 -38 105 l11 30 -43 0 c-57 0 -154 18 -192 36 -32 16 -57
54 -49 77 3 7 -7 17 -25 24 -77 29 -60 190 26 246 19 12 32 27 30 34 -7 18 30
60 60 67 15 4 36 19 47 33 26 33 75 53 128 53 29 0 50 7 71 25 38 32 73 41
119 28 27 -7 43 -6 61 3 29 16 112 18 141 3z"/>
</g>
</svg>
