<?xml version="1.0" standalone="no"?>
<!DOCTYPE svg PUBLIC "-//W3C//DTD SVG 20010904//EN"
 "http://www.w3.org/TR/2001/REC-SVG-20010904/DTD/svg10.dtd">
<svg version="1.0" xmlns="http://www.w3.org/2000/svg"
 width="512.000000pt" height="512.000000pt" viewBox="0 0 512.000000 512.000000"
 preserveAspectRatio="xMidYMid meet">
<metadata>
Created by potrace 1.13, written by Peter Selinger 2001-2015
</metadata>
<g transform="translate(0.000000,512.000000) scale(0.100000,-0.100000)"
fill="#000000" stroke="none">
<path d="M3872 5107 c-50 -19 -91 -64 -302 -330 l-195 -246 -230 -1 c-250 0
-282 -6 -332 -61 -26 -28 -53 -89 -53 -119 0 -20 -4 -20 -515 -20 l-514 0 20
-47 c77 -180 80 -444 7 -661 -14 -40 -22 -74 -20 -77 3 -3 234 -5 512 -5 l507
0 7 -38 c7 -46 61 -113 110 -136 28 -13 72 -16 265 -16 l231 0 219 -274 c182
-226 227 -277 263 -295 59 -28 117 -27 181 4 29 14 270 157 537 318 552 333
544 326 544 442 0 107 -68 181 -176 192 -69 7 -55 14 -547 -281 -217 -131
-397 -238 -401 -239 -4 -1 -105 120 -224 268 l-216 270 0 184 0 184 216 269
c153 192 220 268 231 264 8 -3 203 -119 433 -257 453 -272 461 -275 555 -249
144 40 177 244 54 338 -42 33 -992 599 -1033 616 -45 19 -87 19 -134 3z"/>
<path d="M666 4680 c-281 -51 -512 -253 -596 -525 -31 -100 -38 -267 -16 -371
22 -99 90 -241 153 -319 261 -321 750 -367 1063 -99 115 98 208 246 247 394
26 99 23 273 -6 375 -37 133 -93 227 -196 330 -101 101 -196 158 -325 195 -85
24 -247 34 -324 20z m248 -326 c188 -64 306 -224 306 -415 0 -387 -474 -580
-741 -302 -75 79 -108 148 -123 263 -25 188 114 394 308 455 60 19 193 18 250
-1z"/>
<path d="M716 4135 c-86 -31 -142 -121 -134 -218 15 -179 245 -252 362 -115
91 106 61 258 -63 321 -60 30 -106 33 -165 12z"/>
<path d="M1509 3159 c-82 -102 -272 -216 -434 -260 -118 -33 -346 -33 -463 -1
-134 36 -257 98 -359 180 -24 19 -43 32 -43 29 0 -3 279 -479 620 -1056 341
-578 620 -1055 620 -1061 0 -7 -156 -10 -455 -10 -428 0 -458 -1 -493 -19 -42
-22 -62 -42 -88 -91 -18 -32 -19 -62 -19 -380 0 -306 2 -349 17 -376 24 -44
81 -91 125 -104 27 -8 508 -10 1654 -8 l1615 3 41 27 c28 18 50 45 68 81 l26
54 -3 339 c-3 381 -2 374 -81 438 l-39 31 -489 5 -490 5 -645 1105 c-355 608
-647 1106 -649 1108 -2 2 -18 -16 -36 -39z"/>
</g>
</svg>
