<?xml version="1.0" standalone="no"?>
<!DOCTYPE svg PUBLIC "-//W3C//DTD SVG 20010904//EN"
 "http://www.w3.org/TR/2001/REC-SVG-20010904/DTD/svg10.dtd">
<svg version="1.0" xmlns="http://www.w3.org/2000/svg"
 width="512.000000pt" height="512.000000pt" viewBox="0 0 512.000000 512.000000"
 preserveAspectRatio="xMidYMid meet">
<metadata>
Created by potrace 1.13, written by Peter Selinger 2001-2015
</metadata>
<g transform="translate(0.000000,512.000000) scale(0.100000,-0.100000)"
fill="#000000" stroke="none">
<path d="M1691 5098 c-50 -24 -96 -83 -112 -142 -34 -127 78 -266 216 -266 51
0 131 44 164 91 17 23 31 48 31 56 0 20 12 16 76 -25 130 -85 250 -244 324
-432 11 -27 16 -50 11 -50 -5 0 -48 -7 -97 -15 -167 -29 -288 -74 -357 -134
l-34 -30 -256 -3 -256 -3 -30 -29 c-168 -161 -138 -851 79 -1853 l12 -53 1098
0 1098 0 12 53 c186 857 237 1527 136 1769 -24 55 -73 106 -114 118 -20 5
-140 10 -266 10 l-228 0 -30 26 c-95 79 -284 132 -538 149 l-86 6 -23 67 c-93
261 -301 506 -483 567 -30 11 -57 30 -83 61 -68 82 -174 107 -264 62z m452
-1365 c74 -33 148 -112 177 -191 30 -79 25 -187 -13 -265 -33 -67 -100 -130
-173 -164 -78 -35 -190 -36 -267 0 -74 34 -137 94 -172 164 -26 51 -29 69 -30
148 0 106 19 157 86 230 102 110 252 140 392 78z m1119 0 c68 -30 139 -102
171 -171 17 -37 22 -66 22 -137 0 -78 -4 -97 -28 -146 -33 -69 -100 -132 -173
-166 -77 -35 -191 -35 -268 0 -73 34 -136 94 -172 164 -26 51 -29 68 -29 148
0 106 19 157 86 230 101 110 252 140 391 78z m-302 -1058 l0 -125 -400 0 -400
0 0 125 0 125 400 0 400 0 0 -125z"/>
<path d="M1925 3561 c-45 -27 -62 -51 -76 -102 -11 -43 -10 -50 12 -95 34 -68
67 -89 139 -89 63 0 95 16 134 69 29 38 29 124 0 163 -52 71 -144 95 -209 54z"/>
<path d="M3044 3561 c-77 -47 -100 -122 -62 -198 33 -67 66 -88 138 -88 63 0
95 16 134 68 28 38 28 126 0 164 -53 71 -144 94 -210 54z"/>
<path d="M1990 1956 c0 -44 61 -933 65 -943 3 -10 114 -13 509 -13 l504 0 6
63 c9 92 56 827 56 870 l0 37 -570 0 c-483 0 -570 -2 -570 -14z"/>
<path d="M1864 1916 c-81 -61 -156 -161 -194 -256 l-20 -50 28 7 c44 12 105 5
134 -17 l28 -20 25 50 c14 28 40 67 58 88 l33 37 -5 99 c-4 59 -10 101 -17
103 -6 2 -38 -16 -70 -41z"/>
<path d="M3176 1952 c-2 -4 -5 -51 -7 -104 -3 -95 -3 -96 29 -132 18 -20 43
-59 57 -86 l25 -50 28 20 c29 22 90 29 134 17 l28 -7 -20 50 c-39 99 -117 200
-203 264 -50 37 -62 42 -71 28z"/>
<path d="M1680 1567 c-14 -7 -33 -29 -43 -50 -53 -106 86 -196 166 -107 76 85
-20 208 -123 157z"/>
<path d="M3341 1567 c-112 -65 -17 -242 99 -182 36 19 65 75 56 111 -17 65
-100 103 -155 71z"/>
<path d="M1630 1191 l0 -151 -23 0 c-13 0 -34 -12 -48 -26 -22 -23 -24 -34
-24 -114 0 -102 15 -130 70 -130 40 0 65 26 65 68 l0 32 55 0 c54 0 55 0 55
-30 0 -61 77 -93 120 -50 17 17 20 33 20 101 0 104 -23 148 -77 149 -23 0 -23
1 -23 149 l0 148 -46 -15 c-44 -14 -68 -12 -131 14 -10 4 -13 -28 -13 -145z"/>
<path d="M3300 1189 c0 -148 0 -149 -22 -149 -55 -1 -78 -45 -78 -149 0 -68 3
-84 20 -101 43 -43 120 -11 120 50 0 30 1 30 55 30 l55 0 0 -33 c0 -41 26 -67
67 -67 53 0 68 29 68 130 0 80 -2 91 -24 114 -14 14 -35 26 -48 26 l-23 0 0
151 c0 117 -3 149 -12 145 -64 -26 -88 -28 -132 -14 l-46 15 0 -148z"/>
<path d="M2170 854 c0 -88 2 -95 18 -88 36 16 99 16 130 0 17 -9 33 -16 37
-16 7 0 6 164 -1 184 -5 13 -23 16 -95 16 l-89 0 0 -96z"/>
<path d="M2780 850 c0 -55 2 -100 3 -100 2 0 19 7 36 16 32 16 93 16 134 -1
15 -7 17 1 17 89 l0 96 -95 0 -95 0 0 -100z"/>
<path d="M2214 720 c-34 -13 -64 -59 -64 -97 0 -27 8 -43 35 -70 32 -32 40
-35 76 -30 22 3 49 13 59 22 86 78 1 218 -106 175z"/>
<path d="M2825 718 c-59 -32 -75 -114 -31 -161 77 -83 203 -10 174 101 -15 56
-92 88 -143 60z"/>
<path d="M2170 360 l0 -129 -27 -15 c-45 -23 -101 -88 -118 -135 -30 -87 -47
-81 230 -81 l245 0 -6 33 c-11 56 -44 116 -87 153 l-42 35 -5 132 c-5 125 -6
132 -25 129 -65 -12 -108 -13 -135 -4 l-30 11 0 -129z"/>
<path d="M2767 484 c-4 -4 -7 -66 -7 -138 l-1 -131 -38 -26 c-42 -30 -91 -116
-91 -161 l0 -28 241 0 242 0 -6 40 c-8 62 -52 128 -108 163 l-49 30 0 129 c0
128 0 129 -21 117 -21 -11 -95 -8 -134 5 -11 4 -24 4 -28 0z"/>
</g>
</svg>
