<?xml version="1.0" standalone="no"?>
<!DOCTYPE svg PUBLIC "-//W3C//DTD SVG 20010904//EN"
 "http://www.w3.org/TR/2001/REC-SVG-20010904/DTD/svg10.dtd">
<svg version="1.0" xmlns="http://www.w3.org/2000/svg"
 width="256.000000pt" height="256.000000pt" viewBox="0 0 256.000000 256.000000"
 preserveAspectRatio="xMidYMid meet">
<metadata>
Created by potrace 1.13, written by Peter Selinger 2001-2015
</metadata>
<g transform="translate(0.000000,256.000000) scale(0.100000,-0.100000)"
fill="#000000" stroke="none">
<path d="M910 2179 c-791 -111 -755 -103 -801 -196 -21 -42 -24 -62 -23 -158
0 -92 4 -118 23 -162 13 -29 29 -58 37 -64 24 -19 16 -27 -42 -46 -82 -25 -83
-51 -4 -91 18 -9 42 -28 52 -42 23 -32 41 -132 33 -185 -6 -41 -7 -42 -65 -60
-65 -20 -120 -49 -120 -64 0 -6 16 -13 35 -17 19 -3 35 -8 35 -11 0 -3 -9 -16
-20 -30 -76 -97 -57 -344 32 -430 28 -27 99 -53 511 -187 l479 -155 701 170
c385 93 703 172 706 175 15 15 -120 84 -164 84 -16 0 -19 24 -15 120 2 67 34
130 75 149 68 31 83 64 38 83 -39 17 -39 16 -13 40 12 11 34 46 49 77 23 50
26 68 26 166 0 94 -3 117 -22 155 -26 51 -25 52 53 69 30 7 54 17 54 22 0 15
-55 44 -120 64 -58 18 -59 19 -65 60 -8 53 10 153 33 185 11 13 36 34 57 45
44 23 65 50 50 64 -10 10 -874 272 -891 270 -5 -1 -326 -46 -714 -100z m-210
-347 l455 -148 -2 -148 c0 -81 -4 -150 -7 -153 -7 -7 -862 229 -912 251 -19 9
-38 29 -49 52 -20 43 -31 153 -21 209 8 38 45 85 68 85 7 0 218 -67 468 -148z
m1645 61 c-16 -43 -26 -131 -20 -182 l6 -56 -553 -138 c-304 -76 -559 -137
-566 -137 -10 0 -11 31 -6 148 4 81 8 148 9 149 2 4 1098 231 1119 232 13 1
16 -4 11 -16z m20 -417 c29 -29 39 -78 33 -165 -6 -84 -31 -138 -72 -157 -47
-21 -906 -258 -912 -252 -3 3 -6 72 -7 154 l-2 148 450 147 c248 81 458 148
468 148 10 1 29 -10 42 -23z m-1580 -161 c307 -63 559 -116 560 -118 1 -1 5
-68 9 -149 5 -117 4 -148 -6 -148 -7 0 -262 61 -566 137 l-553 138 6 56 c6 51
-4 139 -20 182 -4 9 -3 17 2 17 5 0 261 -52 568 -115z m-160 -443 l450 -148 2
-139 c2 -77 -1 -146 -6 -154 -12 -19 -904 230 -939 262 -44 41 -65 173 -42
259 11 38 42 68 70 68 8 0 218 -67 465 -148z m1640 56 c-4 -13 -10 -70 -12
-128 l-5 -106 -551 -137 c-304 -76 -557 -137 -562 -137 -7 0 -9 52 -7 148 2
81 5 148 6 149 8 8 249 51 261 47 8 -3 45 4 82 17 61 20 732 166 777 168 15 1
17 -3 11 -21z"/>
</g>
</svg>
