<svg xmlns="http://www.w3.org/2000/svg" xmlns:xlink="http://www.w3.org/1999/xlink" version="1.1" x="0px" y="0px" viewBox="0 0 100 125" enable-background="new 0 0 100 100" xml:space="preserve"><g><path d="M86.577,39.719c-0.136-0.038-0.277-0.061-0.417-0.084c-0.001-0.03-0.002-0.06-0.003-0.089   c-0.045-1.375-0.091-2.796-0.091-4.22c0-4.382-0.88-8.472-2.495-12.147c0.1-0.171,0.173-0.359,0.173-0.571   c0-0.579-0.433-1.037-0.987-1.12C77.671,11.711,67.129,5.263,54.002,4.841v-0.03l-1.027,0.005L52.7,4.811l-0.75,0.013v0.018   C33.387,5.439,19.993,18.114,19.993,35.219c0,1.479-0.059,2.964-0.118,4.404c-0.161,0.025-0.321,0.054-0.477,0.097   c-4.047,1.111-5.621,7.801-3.582,15.232c1.506,5.484,4.565,9.706,7.732,10.997c0.312,2.062,0.599,4.178,0.838,6.281   c0.809,7.136,7.913,12.5,12.615,16.05c1.252,0.945,2.333,1.762,3.068,2.438c3.417,3.143,6.375,4.27,11.881,4.445v0.026l0.178-0.001   c0.211,0.242,0.512,0.403,0.859,0.403c0.35,0,0.652-0.164,0.863-0.409l0.153-0.002v-0.018c5.506-0.176,8.464-1.303,11.881-4.445   c0.475-0.437,1.106-0.938,1.823-1.49c0.031,0.003,0.058,0.019,0.09,0.019c0.558,0,1-0.404,1.106-0.929   c0.017-0.013,0.032-0.024,0.048-0.037c3.853-2.909,9.313-7.038,11.607-12.36c0.501-0.125,0.88-0.559,0.88-1.098   c0-0.267-0.105-0.501-0.257-0.696c0.171-0.619,0.312-1.247,0.386-1.896c0.238-2.1,0.524-4.214,0.835-6.272   c3.176-1.279,6.246-5.508,7.755-11.006C92.197,47.521,90.624,40.83,86.577,39.719z M17.262,54.555   c-1.755-6.399-0.596-12.53,2.533-13.389c0.006-0.001,0.013-0.001,0.02-0.002c-0.117,3.204-0.134,6.223,0.592,8.864   c0.722,2.625,1.875,7.998,2.856,14.092C20.854,62.611,18.47,58.953,17.262,54.555z M80.078,72.061   c-0.045,0.394-0.114,0.782-0.201,1.166l-0.141-0.193l-0.323,0.236l0.327,0.448c-0.013,0.045-0.026,0.09-0.039,0.135   c-0.332,0.202-0.565,0.552-0.565,0.969c0,0.017,0.009,0.029,0.009,0.046l-0.822,0.18l0.086,0.391l0.792-0.174   c-2.107,4.949-7.333,8.934-11.057,11.746c-0.085-0.027-0.174-0.048-0.267-0.055l-0.078-0.735l-0.397,0.043l0.079,0.741   c-0.479,0.14-0.836,0.563-0.836,1.089c0,0.019,0.01,0.033,0.01,0.052c-0.689,0.532-1.303,1.024-1.786,1.469   c-3.17,2.916-5.816,3.901-11.04,4.051c-0.166-0.181-0.39-0.292-0.642-0.338v-0.081h-0.4v0.081   c-0.251,0.046-0.476,0.157-0.642,0.338c-5.236-0.147-7.886-1.132-11.06-4.051c-0.789-0.726-1.896-1.562-3.18-2.531   c-4.497-3.395-11.292-8.525-12.028-15.021c-1.039-9.157-2.978-18.63-4.023-22.431c-0.77-2.8-0.631-6.207-0.484-9.813   c0.061-1.496,0.124-3.042,0.124-4.597c0-16.475,13.129-28.627,31.218-28.896l0.168-0.005l0.362,0.005   c12.424,0.185,22.514,5.959,27.645,14.886l-0.083-0.044l-0.189,0.353l0.624,0.335c0.086,0.16,0.174,0.319,0.257,0.48   c-0.022,0.09-0.055,0.177-0.055,0.274c0,0.109,0.034,0.208,0.062,0.308l-0.658,0.32l0.175,0.359l0.659-0.32   c0.105,0.144,0.234,0.263,0.394,0.346l-0.059,0.191l0.222,0.069c1.512,3.467,2.332,7.321,2.332,11.445   c0,1.448,0.047,2.882,0.092,4.269c0.12,3.678,0.233,7.152-0.56,10.035c-0.103,0.372-0.215,0.813-0.333,1.288   c-0.474,0.142-0.826,0.565-0.826,1.086c0,0.333,0.146,0.628,0.373,0.838C82.255,57.526,80.89,64.886,80.078,72.061z M88.712,54.555   c-1.208,4.398-3.619,8.049-6.022,9.558c0.704-4.374,1.496-8.372,2.154-11.252c0.24-0.211,0.399-0.512,0.399-0.856   c0-0.16-0.033-0.312-0.091-0.45c0.14-0.575,0.272-1.092,0.392-1.527c0.729-2.653,0.749-5.662,0.662-8.851   C89.314,42.064,90.462,48.175,88.712,54.555z"/><path d="M46.543,66.861c-0.373,0.18-0.529,0.628-0.349,1.001c0.179,0.372,0.628,0.532,1.001,0.349   c0.51-0.243,1.372-0.067,1.642,0.173c0.084,0.076,0.18,0.199,0.296,0.341c0.549,0.67,1.569,1.915,3.26,1.915h1.189   c1.65,0,2.617-1.162,3.194-1.856c0.131-0.158,0.239-0.297,0.337-0.379c0.308-0.252,1.142-0.444,1.666-0.193   c0.371,0.184,0.821,0.023,1.001-0.349c0.18-0.373,0.024-0.821-0.349-1.001c-1.091-0.529-2.546-0.211-3.271,0.385   c-0.181,0.149-0.346,0.349-0.538,0.578c-0.488,0.586-1.094,1.315-2.041,1.315h-1.189c-0.98,0-1.627-0.789-2.1-1.365   c-0.176-0.215-0.328-0.394-0.456-0.508C49.151,66.651,47.629,66.335,46.543,66.861z"/><path d="M75.84,49.759c0-2.06-4.036-4.239-7.852-4.239c-3.946,0-6.68,2.083-7.669,4.173c-1.073,1.42-1.073,1.694-1.073,1.896   c0,0.646,0.525,1.171,1.17,1.171l0.224-0.034c0.003-0.001,0.409-0.126,0.89-0.06c0.104,0.014,0.422,0.124,0.703,0.221   c1.104,0.382,2.951,1.02,5.31,1.02C72.336,53.906,75.84,51.179,75.84,49.759z M67.543,52.406c-2.107,0-3.805-0.587-4.82-0.937   c-0.43-0.148-0.741-0.256-0.992-0.29c-0.169-0.023-0.333-0.032-0.487-0.032c-0.044,0-0.087,0.001-0.129,0.002   c0.136-0.195,0.292-0.41,0.448-0.614l0.086-0.146c0.758-1.677,3.012-3.37,6.339-3.37c3.374,0,6.197,1.884,6.345,2.676   C74.038,50.248,71.624,52.406,67.543,52.406z"/><path d="M44.444,52.666c0.479-0.067,0.884,0.058,0.885,0.058l0.229,0.036c0.645,0,1.17-0.525,1.17-1.171   c0-0.202,0-0.477-1.073-1.896c-0.989-2.09-3.723-4.173-7.669-4.173c-3.816,0-7.852,2.179-7.852,4.239   c0,1.42,3.504,4.147,8.297,4.147c2.358,0,4.206-0.638,5.309-1.019C44.022,52.79,44.341,52.68,44.444,52.666z M38.432,52.406   c-4.081,0-6.495-2.158-6.791-2.71c0.148-0.792,2.971-2.676,6.345-2.676c3.327,0,5.581,1.693,6.339,3.37l0.086,0.146   c0.155,0.204,0.312,0.419,0.448,0.614c-0.188-0.004-0.398,0.001-0.616,0.03c-0.251,0.034-0.562,0.142-0.992,0.29   C42.236,51.819,40.538,52.406,38.432,52.406z"/><path d="M33.008,42.6c0.087,0.003,8.709-0.104,13.058,4.451c1.819,1.906,2.643,4.397,2.448,7.405   c-0.027,0.414,0.287,0.771,0.7,0.797c0.017,0.001,0.033,0.002,0.049,0.002c0.393,0,0.722-0.305,0.748-0.701   c0.223-3.444-0.739-6.317-2.86-8.539c-4.798-5.027-13.791-4.927-14.17-4.916c-0.414,0.008-0.744,0.35-0.736,0.764   C32.252,42.278,32.603,42.585,33.008,42.6z"/><path d="M55.964,54.554c0.026,0.396,0.355,0.701,0.748,0.701c0.016,0,0.032-0.001,0.049-0.002c0.414-0.026,0.727-0.383,0.7-0.797   c-0.044-0.687-0.029-1.342,0.033-1.974l0.133-0.296l-0.095-0.043c0.257-1.99,1.048-3.697,2.375-5.089   c4.34-4.551,12.972-4.455,13.06-4.455c0.403,0.026,0.756-0.322,0.763-0.737c0.007-0.414-0.322-0.755-0.736-0.763   c-0.393-0.009-9.37-0.111-14.168,4.915C56.705,48.236,55.742,51.109,55.964,54.554z"/><path d="M63.971,77.371c-6.954-1.216-7.624-0.88-7.844-0.77c-0.082,0.041-0.188,0.101-0.315,0.173   c-0.522,0.296-1.496,0.846-2.486,0.879h-0.14v-0.408h-0.4v0.408h-0.113c-1.015-0.033-1.988-0.583-2.51-0.879   c-0.127-0.072-0.234-0.132-0.316-0.173c-0.219-0.109-0.892-0.445-7.843,0.77c-0.408,0.072-0.681,0.46-0.609,0.868   s0.46,0.676,0.868,0.61c1.641-0.287,3.464-0.565,4.834-0.739h2.382c0.646,0.364,1.799,0.998,3.17,1.043h0.702   c1.348-0.045,2.5-0.679,3.146-1.043h2.276c1.396,0.165,3.263,0.446,4.939,0.739c0.409,0.065,0.797-0.202,0.868-0.61   C64.652,77.831,64.379,77.443,63.971,77.371z"/><path d="M52.786,51.425v0.82h0.4V51.43c0.544-0.094,0.964-0.545,0.964-1.114c0-0.637-0.516-1.152-1.153-1.152   c-0.635,0-1.151,0.516-1.151,1.152C51.846,50.876,52.256,51.322,52.786,51.425z"/><circle cx="67.795" cy="56.987" r="1.152"/><path d="M65.461,39.161c0,0.205,0.067,0.386,0.161,0.553l-0.381,0.312l0.254,0.31l0.378-0.31c0.201,0.172,0.455,0.288,0.741,0.288   c0.637,0,1.152-0.516,1.152-1.152s-0.516-1.152-1.152-1.152S65.461,38.524,65.461,39.161z"/><path d="M66.644,76.655c-0.637,0-1.151,0.516-1.151,1.152c0,0.135,0.034,0.259,0.076,0.379l-0.299,0.159l0.188,0.354l0.311-0.166   c0.207,0.25,0.507,0.417,0.856,0.423l0.037,0.346l0.397-0.043l-0.04-0.375c0.45-0.156,0.776-0.572,0.776-1.076   C67.796,77.171,67.281,76.655,66.644,76.655z"/><circle cx="77.492" cy="39.161" r="1.152"/><path d="M56.902,63.092c0,0.636,0.516,1.153,1.152,1.153s1.152-0.518,1.152-1.153c0-0.153-0.033-0.298-0.087-0.431l0.308-0.193   l-0.213-0.34l-0.313,0.196c-0.21-0.232-0.508-0.385-0.847-0.385c-0.08,0-0.149,0.03-0.224,0.045l-0.233-0.588l-0.372,0.146   l0.233,0.587C57.131,62.333,56.902,62.679,56.902,63.092z"/><circle cx="53.011" cy="13.663" r="1.152"/><path d="M66.188,14.72l-0.048-0.014l-0.272,0.962l0.385,0.109l0.272-0.962l-0.293-0.083c0.128,0.05,0.266,0.083,0.412,0.083   c0.638,0,1.152-0.517,1.152-1.152c0-0.637-0.515-1.152-1.152-1.152c-0.637,0-1.151,0.516-1.151,1.152   C65.492,14.137,65.779,14.542,66.188,14.72z"/><circle cx="61.148" cy="33.04" r="1.152"/><path d="M52.786,34.149v0.096h0.4v-0.091c0.543-0.093,0.964-0.546,0.964-1.115c0-0.57-0.421-1.021-0.964-1.113v-0.68h-0.4v0.685   c-0.531,0.103-0.94,0.547-0.94,1.108C51.846,33.6,52.255,34.046,52.786,34.149z"/><rect x="54.721" y="48.232" transform="matrix(-0.6342 -0.7732 0.7732 -0.6342 52.0706 122.1007)" width="0.4" height="1"/><rect x="55.968" y="47.265" transform="matrix(0.7739 -0.6333 0.6333 0.7739 -17.2925 46.4922)" width="1" height="0.4"/><rect x="60.612" y="43.465" transform="matrix(0.7739 -0.6333 0.6333 0.7739 -13.836 48.5734)" width="1" height="0.4"/><rect x="59.064" y="44.732" transform="matrix(0.7739 -0.6333 0.6333 0.7739 -14.9881 47.8795)" width="1" height="0.4"/><rect x="62.459" y="41.898" transform="matrix(-0.6327 -0.7744 0.7744 -0.6327 69.4711 117.7456)" width="0.4" height="1"/><rect x="57.516" y="45.998" transform="matrix(0.7735 -0.6338 0.6338 0.7735 -16.1396 47.2368)" width="1" height="0.4"/><rect x="63.707" y="40.931" transform="matrix(-0.7739 0.6333 -0.6333 -0.7739 139.9453 32.3014)" width="1" height="0.4"/><rect x="65.706" y="56.071" transform="matrix(0.912 0.4101 -0.4101 0.912 28.9022 -22.2026)" width="1" height="0.4"/><rect x="60.236" y="53.607" transform="matrix(0.9116 0.4111 -0.4111 0.9116 27.491 -20.2121)" width="1" height="0.4"/><rect x="64.183" y="54.95" transform="matrix(0.4098 -0.9122 0.9122 0.4098 -12.5797 91.459)" width="0.4" height="1"/><rect x="62.059" y="54.428" transform="matrix(0.9117 0.4109 -0.4109 0.9117 27.9748 -20.8822)" width="1" height="0.4"/><rect x="58.413" y="52.785" transform="matrix(0.912 0.4101 -0.4101 0.912 26.9129 -19.5002)" width="1" height="0.4"/><rect x="54.765" y="51.142" transform="matrix(-0.9117 -0.4109 0.4109 -0.9117 84.5512 120.8597)" width="1" height="0.4"/><rect x="71.598" y="55.471" transform="matrix(-0.9564 0.2921 -0.2921 -0.9564 157.3134 87.8555)" width="1" height="0.4"/><rect x="73.511" y="54.886" transform="matrix(-0.9564 0.2921 -0.2921 -0.9564 160.8843 86.1524)" width="1" height="0.4"/><rect x="75.723" y="54.002" transform="matrix(0.2927 0.9562 -0.9562 0.2927 105.8138 -34.0498)" width="0.4" height="1"/><rect x="77.336" y="53.717" transform="matrix(-0.9561 0.293 -0.293 -0.9561 168.0532 82.6629)" width="1" height="0.4"/><rect x="69.686" y="56.056" transform="matrix(0.9564 -0.2921 0.2921 0.9564 -13.3713 22.9542)" width="1" height="0.4"/><rect x="81.461" y="52.247" transform="matrix(-0.2927 -0.9562 0.9562 -0.2927 55.1278 146.2713)" width="0.4" height="1"/><rect x="79.548" y="52.832" transform="matrix(-0.2927 -0.9562 0.9562 -0.2927 52.096 145.1986)" width="0.4" height="1"/><rect x="78.792" y="42.465" transform="matrix(-0.457 -0.8895 0.8895 -0.457 77.5743 132.6905)" width="1" height="0.4"/><rect x="77.878" y="40.686" transform="matrix(0.457 0.8895 -0.8895 0.457 78.931 -47.5133)" width="1" height="0.4"/><rect x="81.535" y="47.802" transform="matrix(-0.457 -0.8895 0.8895 -0.457 76.8236 142.905)" width="1" height="0.4"/><rect x="80.621" y="46.023" transform="matrix(0.457 0.8895 -0.8895 0.457 85.1672 -47.055)" width="1" height="0.4"/><rect x="82.449" y="49.58" transform="matrix(0.4573 0.8893 -0.8893 0.4573 89.2826 -46.7521)" width="1" height="0.4"/><rect x="79.706" y="44.244" transform="matrix(-0.4573 -0.8893 0.8893 -0.4573 77.364 136.0966)" width="1" height="0.4"/><rect x="68.613" y="38.961" width="1" height="0.4"/><rect x="70.613" y="38.961" width="1" height="0.4"/><rect x="72.613" y="38.961" width="1" height="0.4"/><rect x="74.613" y="38.961" width="1" height="0.4"/><rect x="60.093" y="61.3" transform="matrix(0.8472 -0.5313 0.5313 0.8472 -23.4153 41.5883)" width="1" height="0.401"/><rect x="61.787" y="60.239" transform="matrix(0.8472 -0.5313 0.5313 0.8472 -22.5923 42.3265)" width="1" height="0.401"/><rect x="63.482" y="59.176" transform="matrix(0.8473 -0.5311 0.5311 0.8473 -21.7647 43.0422)" width="1" height="0.401"/><rect x="65.177" y="58.115" transform="matrix(0.8476 -0.5306 0.5306 0.8476 -20.9338 43.7308)" width="0.999" height="0.401"/><rect x="54.413" y="65.492" transform="matrix(0.6435 0.7654 -0.7654 0.6435 69.9794 -18.2784)" width="0.401" height="1"/><rect x="55.943" y="64.203" transform="matrix(0.6435 0.7654 -0.7654 0.6435 69.5379 -19.9084)" width="0.401" height="1"/><rect x="55.055" y="62.892" width="1" height="0.4"/><rect x="54.446" y="53.998" transform="matrix(-0.9305 0.3663 -0.3663 -0.9305 125.4572 85.1891)" width="0.4" height="1"/><rect x="53.408" y="52.439" transform="matrix(-0.369 -0.9294 0.9294 -0.369 24.878 122.1686)" width="1" height="0.401"/><rect x="55.92" y="57.717" transform="matrix(-0.9288 0.3705 -0.3705 -0.9288 129.8184 91.4938)" width="0.401" height="1"/><rect x="54.883" y="56.157" transform="matrix(-0.3686 -0.9296 0.9296 -0.3686 23.4089 128.6146)" width="1" height="0.4"/><rect x="56.358" y="59.875" transform="matrix(0.3686 0.9296 -0.9296 0.3686 91.7445 -14.9236)" width="1" height="0.4"/><rect x="64.863" y="75.415" transform="matrix(-0.5041 -0.8636 0.8636 -0.5041 33.0097 170.1841)" width="1" height="0.4"/><rect x="62.139" y="69.933" transform="matrix(-0.8643 0.503 -0.503 -0.8643 151.644 99.9552)" width="0.4" height="1"/><rect x="58.815" y="65.051" transform="matrix(0.5041 0.8636 -0.8636 0.5041 85.7666 -18.8695)" width="1" height="0.4"/><rect x="63.855" y="73.688" transform="matrix(0.5041 0.8636 -0.8636 0.5041 95.7249 -18.9395)" width="1" height="0.4"/><rect x="60.831" y="68.506" transform="matrix(0.5037 0.8639 -0.8639 0.5037 89.793 -18.8837)" width="1" height="0.4"/><rect x="62.847" y="71.961" transform="matrix(0.5037 0.8639 -0.8639 0.5037 93.7784 -18.9106)" width="1" height="0.4"/><rect x="59.823" y="66.779" transform="matrix(-0.5041 -0.8636 0.8636 -0.5041 32.8872 152.8403)" width="1" height="0.4"/><rect x="72.792" y="75.918" transform="matrix(-0.2149 -0.9766 0.9766 -0.2149 14.0427 164.1241)" width="0.4" height="1"/><rect x="74.746" y="75.491" transform="matrix(-0.2149 -0.9766 0.9766 -0.2149 16.8332 165.5139)" width="0.4" height="1"/><rect x="76.7" y="75.063" transform="matrix(-0.2149 -0.9766 0.9766 -0.2149 19.6243 166.9022)" width="0.4" height="1"/><rect x="70.839" y="76.345" transform="matrix(-0.2149 -0.9766 0.9766 -0.2149 11.2516 162.7357)" width="0.4" height="1"/><rect x="68.885" y="76.773" transform="matrix(-0.2149 -0.9766 0.9766 -0.2149 8.4602 161.3472)" width="0.4" height="1"/><rect x="73.779" y="64.973" transform="matrix(0.8073 -0.5902 0.5902 0.8073 -24.3835 56.2823)" width="0.4" height="1"/><rect x="77.013" y="70.123" transform="matrix(-0.5895 -0.8078 0.8078 -0.5895 66.3994 174.3902)" width="1" height="0.4"/><rect x="74.657" y="66.89" transform="matrix(-0.5887 -0.8084 0.8084 -0.5887 65.1694 167.339)" width="1" height="0.4"/><rect x="75.835" y="68.506" transform="matrix(0.5887 0.8084 -0.8084 0.5887 86.936 -33.4466)" width="1" height="0.4"/><rect x="72.302" y="63.657" transform="matrix(0.5892 0.808 -0.808 0.5892 81.5075 -32.59)" width="1" height="0.4"/><rect x="78.191" y="71.739" transform="matrix(-0.5892 -0.808 0.808 -0.5892 66.9244 177.9061)" width="1" height="0.4"/><rect x="69.946" y="60.424" transform="matrix(0.5887 0.8084 -0.8084 0.5887 77.9806 -32.0103)" width="1" height="0.4"/><rect x="68.768" y="58.808" transform="matrix(-0.5887 -0.8084 0.8084 -0.5887 62.3465 149.7386)" width="1" height="0.4"/><rect x="71.124" y="62.041" transform="matrix(-0.5892 -0.808 0.808 -0.5892 63.5304 156.7838)" width="1" height="0.4"/><rect x="66.732" y="72.965" transform="matrix(0.9986 0.0537 -0.0537 0.9986 4.0426 -3.489)" width="0.4" height="0.999"/><rect x="67.465" y="58.984" transform="matrix(-0.9986 -0.0537 0.0537 -0.9986 132.0369 122.5163)" width="0.4" height="1"/><rect x="66.941" y="68.97" transform="matrix(0.9986 0.0537 -0.0537 0.9986 3.8283 -3.506)" width="0.4" height="1"/><rect x="67.36" y="60.981" transform="matrix(0.9986 0.0537 -0.0537 0.9986 3.3998 -3.5401)" width="0.4" height="1"/><rect x="67.255" y="62.979" transform="matrix(0.9986 0.0537 -0.0537 0.9986 3.5069 -3.5315)" width="0.4" height="0.999"/><rect x="66.627" y="74.962" transform="matrix(-0.9986 -0.0537 0.0537 -0.9986 129.5041 154.4043)" width="0.4" height="0.999"/><rect x="67.046" y="66.973" transform="matrix(0.9986 0.0537 -0.0537 0.9986 3.7212 -3.5145)" width="0.4" height="1"/><rect x="67.151" y="64.976" transform="matrix(0.9986 0.0537 -0.0537 0.9986 3.6141 -3.523)" width="0.4" height="0.999"/><rect x="66.836" y="70.967" transform="matrix(0.9986 0.0537 -0.0537 0.9986 3.9354 -3.4975)" width="0.4" height="1"/><rect x="58.245" y="81.85" transform="matrix(0.8824 -0.4705 0.4705 0.8824 -31.6957 37.2876)" width="1" height="0.401"/><path d="M57.335,82.594c0.038-0.017,0.074-0.026,0.112-0.044c0.375-0.174,0.539-0.62,0.365-0.996   c-0.174-0.376-0.62-0.539-0.996-0.365c-0.784,0.363-1.569,0.57-2.323,0.681h-1.307v-0.624h-0.4v0.624h-1.068   c-1.508-0.209-2.539-0.671-2.559-0.68c-0.376-0.176-0.821-0.011-0.996,0.364c-0.174,0.375-0.013,0.819,0.362,0.995   c0.114,0.053,1.873,0.845,4.261,0.918v0.535c-0.525,0.107-0.928,0.55-0.928,1.106c0,0.556,0.402,0.999,0.928,1.106v0.03h0.148   c0.027,0.002,0.05,0.016,0.078,0.016s0.05-0.014,0.077-0.016h0.098v-0.02c0.55-0.088,0.976-0.543,0.976-1.117   s-0.426-1.029-0.976-1.117v-0.514c1.235-0.006,2.617-0.229,4.019-0.833l-0.76,0.405l0.188,0.354l0.882-0.471L57.335,82.594z"/><rect x="54.716" y="83.732" transform="matrix(0.8824 -0.4705 0.4705 0.8824 -32.9962 35.8482)" width="1" height="0.401"/><rect x="61.775" y="79.969" transform="matrix(0.8823 -0.4707 0.4707 0.8823 -30.4048 38.7482)" width="1" height="0.401"/><rect x="60.01" y="80.909" transform="matrix(0.8823 -0.4707 0.4707 0.8823 -31.0552 38.0283)" width="1" height="0.401"/><rect x="66.941" y="84.55" transform="matrix(-0.1055 -0.9944 0.9944 -0.1055 -9.7212 160.7556)" width="1" height="0.4"/><rect x="63.84" y="78.728" transform="matrix(-0.4705 -0.8824 0.8824 -0.4705 24.2568 173.0115)" width="0.401" height="1"/><rect x="67.03" y="82.261" transform="matrix(0.9942 -0.1075 0.1075 0.9942 -8.5058 7.7054)" width="0.4" height="1"/><rect x="66.819" y="80.272" transform="matrix(0.9942 -0.1075 0.1075 0.9942 -8.2933 7.6712)" width="0.4" height="1.001"/><rect x="58.857" y="86.184" transform="matrix(-0.9801 -0.1983 0.1983 -0.9801 100.408 182.8226)" width="1" height="0.4"/><rect x="64.738" y="87.373" transform="matrix(-0.9801 -0.1983 0.1983 -0.9801 111.8171 186.3439)" width="1" height="0.4"/><rect x="62.778" y="86.977" transform="matrix(-0.9801 -0.1983 0.1983 -0.9801 108.0137 185.1701)" width="1" height="0.4"/><rect x="60.817" y="86.581" transform="matrix(-0.9802 -0.1982 0.1982 -0.9802 104.2203 183.9922)" width="1" height="0.4"/><rect x="56.897" y="85.787" transform="matrix(-0.98 -0.1991 0.1991 -0.98 96.5229 181.6815)" width="1.001" height="0.401"/><rect x="54.937" y="85.39" transform="matrix(-0.9801 -0.1983 0.1983 -0.9801 92.8024 180.4731)" width="1" height="0.4"/><rect x="63.116" y="35.604" transform="matrix(-0.6659 -0.746 0.746 -0.6659 79.2705 107.1057)" width="1" height="0.4"/><rect x="64.448" y="37.096" transform="matrix(0.6659 0.746 -0.746 0.6659 49.5201 -35.9925)" width="1" height="0.4"/><rect x="61.784" y="34.112" transform="matrix(-0.6659 -0.746 0.746 -0.6659 78.1642 103.6269)" width="1" height="0.4"/><rect x="54.986" y="32.89" width="1" height="0.3"/><rect x="58.986" y="32.89" width="1" height="0.3"/><rect x="56.986" y="32.89" width="1" height="0.3"/><rect x="75.786" y="25.321" transform="matrix(-0.4374 -0.8993 0.8993 -0.4374 86.0026 105.4467)" width="0.4" height="1"/><rect x="66.794" y="29.696" transform="matrix(0.4374 0.8993 -0.8993 0.4374 64.844 -43.2565)" width="0.4" height="1"/><rect x="77.584" y="24.446" transform="matrix(-0.4374 -0.8993 0.8993 -0.4374 89.3747 105.8064)" width="0.4" height="1"/><rect x="64.995" y="30.571" transform="matrix(-0.4374 -0.8993 0.8993 -0.4374 65.7706 103.2894)" width="0.4" height="1"/><rect x="70.391" y="27.946" transform="matrix(-0.4374 -0.8993 0.8993 -0.4374 75.8868 104.3682)" width="0.4" height="1"/><rect x="68.592" y="28.821" transform="matrix(0.4374 0.8993 -0.8993 0.4374 65.0689 -45.3659)" width="0.4" height="1"/><rect x="72.189" y="27.071" transform="matrix(-0.4374 -0.8993 0.8993 -0.4374 79.2586 104.7276)" width="0.4" height="1"/><rect x="79.082" y="23.871" transform="matrix(-0.8993 0.4374 -0.4374 -0.8993 161.6769 10.9063)" width="1" height="0.4"/><rect x="73.987" y="26.196" transform="matrix(-0.4374 -0.8993 0.8993 -0.4374 82.6307 105.0873)" width="0.4" height="1"/><rect x="63.197" y="31.446" transform="matrix(-0.4374 -0.8993 0.8993 -0.4374 62.3988 102.93)" width="0.4" height="1"/><rect x="80.083" y="28.927" transform="matrix(0.2945 -0.9557 0.9557 0.2945 29.0191 97.5604)" width="1" height="0.4"/><rect x="81.561" y="24.804" transform="matrix(0.9553 0.2956 -0.2956 0.9553 11.1351 -23.04)" width="0.4" height="1"/><rect x="80.972" y="26.715" transform="matrix(0.9553 0.2956 -0.2956 0.9553 11.6739 -22.7805)" width="0.4" height="1"/><rect x="79.794" y="30.538" transform="matrix(0.9553 0.2956 -0.2956 0.9553 12.7513 -22.2614)" width="0.4" height="1"/><rect x="78.905" y="32.75" transform="matrix(0.2945 -0.9557 0.9557 0.2945 24.5346 99.1315)" width="1" height="0.4"/><rect x="78.616" y="34.361" transform="matrix(0.9553 0.2956 -0.2956 0.9553 13.8288 -21.7423)" width="0.4" height="1"/><rect x="78.027" y="36.272" transform="matrix(-0.9553 -0.2956 0.2956 -0.9553 142.0871 95.0267)" width="0.4" height="1"/><rect x="65.45" y="16.666" transform="matrix(0.9619 0.2734 -0.2734 0.9619 7.1955 -17.2966)" width="0.4" height="1"/><rect x="64.359" y="20.514" transform="matrix(-0.9619 -0.2734 0.2734 -0.9619 120.9115 58.8799)" width="0.4" height="1"/><rect x="62.722" y="26.287" transform="matrix(-0.9619 -0.2734 0.2734 -0.9619 116.1216 69.7572)" width="0.4" height="1"/><rect x="62.967" y="24.663" transform="matrix(-0.2729 0.9621 -0.9621 -0.2729 104.7039 -29.413)" width="1" height="0.4"/><rect x="61.631" y="30.135" transform="matrix(0.9619 0.2734 -0.2734 0.9619 10.7328 -15.739)" width="0.4" height="1"/><rect x="63.813" y="22.439" transform="matrix(0.9619 0.2734 -0.2734 0.9619 8.7115 -16.629)" width="0.4" height="1"/><rect x="62.176" y="28.211" transform="matrix(0.9619 0.2734 -0.2734 0.9619 10.2275 -15.9615)" width="0.4" height="1"/><rect x="64.904" y="18.59" transform="matrix(-0.9619 -0.2734 0.2734 -0.9619 122.5081 55.2543)" width="0.4" height="1"/><rect x="60.22" y="13.463" width="1" height="0.4"/><rect x="64.22" y="13.463" width="1" height="0.4"/><rect x="56.22" y="13.463" width="1" height="0.4"/><rect x="62.22" y="13.463" width="1" height="0.4"/><rect x="58.22" y="13.463" width="1" height="0.4"/><rect x="54.22" y="13.463" width="1" height="0.4"/><rect x="78.888" y="20.431" transform="matrix(0.881 0.4732 -0.4732 0.881 19.2134 -35.11)" width="1" height="0.4"/><rect x="77.126" y="19.486" transform="matrix(0.8811 0.473 -0.473 0.8811 18.5436 -34.3751)" width="1" height="0.4"/><rect x="70.078" y="15.701" transform="matrix(0.881 0.4732 -0.4732 0.881 15.9259 -31.5042)" width="1" height="0.4"/><rect x="75.364" y="18.539" transform="matrix(0.881 0.4732 -0.4732 0.881 17.8985 -33.6677)" width="1" height="0.4"/><rect x="71.84" y="16.647" transform="matrix(0.881 0.4732 -0.4732 0.881 16.5835 -32.2255)" width="1" height="0.4"/><rect x="68.316" y="14.754" transform="matrix(0.881 0.4732 -0.4732 0.881 15.2684 -30.7833)" width="1" height="0.4"/><rect x="73.602" y="17.593" transform="matrix(0.881 0.4732 -0.4732 0.881 17.241 -32.9465)" width="1" height="0.4"/><rect x="52.786" y="37.246" width="0.4" height="1"/><rect x="52.786" y="39.246" width="0.4" height="1"/><rect x="52.786" y="47.246" width="0.4" height="1"/><rect x="52.786" y="35.246" width="0.4" height="1"/><rect x="52.786" y="43.246" width="0.4" height="1"/><rect x="52.786" y="79.245" width="0.4" height="1"/><rect x="52.786" y="73.245" width="0.4" height="1"/><rect x="52.786" y="71.245" width="0.4" height="1"/><rect x="52.786" y="91.245" width="0.4" height="1"/><rect x="52.786" y="75.245" width="0.4" height="1"/><rect x="52.786" y="89.245" width="0.4" height="1"/><rect x="52.786" y="45.246" width="0.4" height="1"/><rect x="52.786" y="87.245" width="0.4" height="1"/><rect x="52.786" y="41.246" width="0.4" height="1"/><path d="M52.786,66.233c-0.531,0.104-0.939,0.549-0.939,1.11c0,0.636,0.516,1.152,1.153,1.152c0.637,0,1.15-0.517,1.15-1.152   c0-0.571-0.42-1.023-0.964-1.115v-0.983h-0.4V66.233z"/><rect x="52.786" y="57.245" width="0.4" height="1"/><rect x="52.786" y="55.245" width="0.4" height="1"/><rect x="52.786" y="53.245" width="0.4" height="1"/><polygon points="52.786,64.245 53.187,64.245 53.187,63.292 54.055,63.292 54.055,62.892 53.055,62.892 53.055,63.245    52.786,63.245  "/><rect x="52.786" y="61.245" width="0.4" height="1"/><rect x="52.786" y="59.245" width="0.4" height="1"/><rect x="52.786" y="17.246" width="0.4" height="1"/><rect x="52.786" y="21.246" width="0.4" height="1"/><rect x="52.786" y="19.246" width="0.4" height="1"/><rect x="52.786" y="15.246" width="0.4" height="1"/><rect x="52.786" y="29.246" width="0.4" height="1"/><rect x="52.786" y="27.246" width="0.4" height="1"/><rect x="52.786" y="25.246" width="0.4" height="1"/><rect x="52.786" y="23.246" width="0.4" height="1"/></g><text x="0" y="115" fill="#000000" font-size="5px" font-weight="bold" font-family="'Helvetica Neue', Helvetica, Arial-Unicode, Arial, Sans-serif">Created by mungang kim</text><text x="0" y="120" fill="#000000" font-size="5px" font-weight="bold" font-family="'Helvetica Neue', Helvetica, Arial-Unicode, Arial, Sans-serif">from the Noun Project</text></svg>