<?xml version="1.0" encoding="utf-8"?>
<!-- Generator: Adobe Illustrator 16.0.0, SVG Export Plug-In . SVG Version: 6.00 Build 0)  -->
<!DOCTYPE svg PUBLIC "-//W3C//DTD SVG 1.1//EN" "http://www.w3.org/Graphics/SVG/1.1/DTD/svg11.dtd">
<svg version="1.1" id="Layer_1" xmlns="http://www.w3.org/2000/svg" xmlns:xlink="http://www.w3.org/1999/xlink" x="0px" y="0px"
	 width="180px" height="60px" viewBox="0 0 180 60" enable-background="new 0 0 180 60" xml:space="preserve">
<path fill="#FFFFFF" d="M8.417,44.359c-3.479-2.4-5.877-5.636-6.957-9.595c-2.158-8.995,3.477-17.99,12.473-19.789
	c1.08-0.24,2.279-0.359,3.359-0.359c3.717-0.12,7.554,0,11.273,0c0.24,0,0.359,0,0.479,0c0,2.397,0,4.797,0,7.315
	c-0.12,0-0.24,0-0.479,0c-3.598,0-7.197,0-10.914,0c-2.519,0-4.797,0.838-6.597,2.638c-1.799,1.8-2.638,3.959-2.638,6.478
	c0,4.316,0,8.514,0,12.834C8.417,44,8.417,44.119,8.417,44.359L8.417,44.359z"/>
<path fill="#FDCE0E" d="M13.813,46.516c0-2.156,0-4.437,0-6.596c2.64,0,5.277,0,7.917,0c0-1.796,0-3.597,0-5.393
	c-2.641,0-5.278,0-7.917,0c0-0.242,0-0.36,0-0.602c0-1.082,0-2.16,0.121-3.238c0.239-1.8,1.919-3.24,3.719-3.359
	c3.716,0,7.434,0,11.273,0c0,0,0.12,0,0.12,0.119c0,6.36,0,12.714,0,19.068C24.008,46.516,18.969,46.516,13.813,46.516
	L13.813,46.516z"/>
<path fill="#FFFFFF" d="M56.75,24.09v5.635c-1.559,1.081-3.958,1.919-5.876,1.919c-4.438,0-7.797-3.236-7.797-7.435
	s3.36-7.436,7.917-7.436c2.158,0,4.318,0.839,5.875,2.16l-1.919,2.397c-1.078-1.08-2.517-1.679-3.956-1.679
	c-2.519,0-4.557,2.039-4.557,4.557c0,2.519,2.039,4.558,4.557,4.558c0.958,0,1.919-0.359,2.878-0.838V24.09H56.75z"/>
<path fill="#FFFFFF" d="M68.023,27.328h-0.241h-2.998v4.078h-3.358V16.895h6.355c3.72,0,5.877,1.8,5.877,5.037
	c0,2.278-0.84,3.958-2.638,4.678l3.118,4.797h-3.72L68.023,27.328z M67.783,24.569L67.783,24.569c1.8,0,2.879-0.838,2.879-2.518
	c0-1.561-1.079-2.399-2.879-2.399h-2.998v4.917H67.783z"/>
<polygon fill="#FFFFFF" points="81.576,19.653 81.576,22.77 88.651,22.77 88.651,25.53 81.576,25.53 81.576,28.768 89.611,28.768 
	89.611,31.406 78.337,31.406 78.337,16.895 89.373,16.895 89.373,19.653 "/>
<polygon fill="#FFFFFF" points="101.129,31.406 97.768,31.406 97.768,26.849 92.371,16.895 95.727,16.895 99.443,23.491 
	103.045,16.895 106.404,16.895 101.129,26.729 "/>
<polygon fill="#FFFFFF" points="119.957,19.653 119.957,23.251 126.549,23.251 126.549,26.009 119.957,26.009 119.957,31.406 
	116.717,31.406 116.717,16.895 127.15,16.895 127.029,19.653 "/>
<path fill="#FFFFFF" d="M145.498,24.21c0,4.198-3.354,7.435-7.793,7.435c-4.438,0-7.916-3.236-7.916-7.435s3.479-7.436,7.916-7.436
	C142.145,16.774,145.498,20.012,145.498,24.21L145.498,24.21z M133.268,24.21L133.268,24.21c0,2.519,2.037,4.558,4.438,4.558
	c2.396,0,4.439-2.039,4.439-4.558c0-2.519-2.043-4.557-4.439-4.557C135.186,19.653,133.268,21.691,133.268,24.21L133.268,24.21z"/>
<polygon fill="#FFFFFF" points="159.654,31.406 152.576,22.171 152.576,31.406 149.457,31.406 149.457,16.895 152.457,16.895 
	159.535,26.25 159.535,16.895 162.648,16.895 162.648,31.406 "/>
<polygon fill="#FFFFFF" points="174.045,19.653 174.045,31.406 170.688,31.406 170.688,19.653 166.25,19.653 166.25,16.895 
	178.484,16.895 178.484,19.653 "/>
<path fill="#FFFFFF" d="M43.197,38.364c0.599-0.12,1.439-0.12,2.158-0.12c1.32,0,2.039,0.239,2.637,0.719
	c0.359,0.359,0.723,0.957,0.723,1.677c0,1.2-0.84,1.922-1.681,2.283l0,0c0.599,0.239,1.079,0.835,1.199,1.796
	c0.36,1.197,0.6,2.16,0.721,2.4h-1.201c-0.12-0.24-0.359-0.963-0.599-2.041c-0.24-1.197-0.719-1.68-1.68-1.796h-1.078v3.837h-1.2
	V38.364z M44.397,42.444L44.397,42.444h1.078c1.32,0,2.041-0.604,2.041-1.686c0-1.077-0.84-1.676-2.041-1.676
	c-0.601,0-0.959,0.118-1.078,0.118V42.444z"/>
<path fill="#FFFFFF" d="M51.353,44.24c0,1.557,1.08,2.155,2.158,2.155c0.84,0,1.319-0.12,1.801-0.358l0.239,0.842
	c-0.481,0.24-1.2,0.359-2.157,0.359c-1.921,0-3.121-1.201-3.121-3.119c0-1.917,1.081-3.479,3-3.479c2.039,0,2.638,1.805,2.638,3.002
	c0,0.239,0,0.478-0.12,0.599H51.353z M54.71,43.398L54.71,43.398c0.12-0.719-0.239-1.919-1.559-1.919
	c-1.2,0-1.679,1.082-1.799,1.919H54.71z"/>
<path fill="#FFFFFF" d="M61.306,47.119l-0.12-0.724l0,0c-0.359,0.483-1.078,0.964-2.038,0.964c-1.198,0-1.921-0.964-1.921-1.922
	c0-1.438,1.441-2.398,3.84-2.275v-0.123c0-0.595-0.121-1.56-1.441-1.56c-0.599,0-1.199,0.238-1.676,0.479l-0.242-0.719
	c0.481-0.36,1.319-0.601,2.04-0.601c2.038,0,2.52,1.319,2.52,2.643v2.396c0,0.479,0,1.082,0,1.441H61.306z M61.067,43.881
	L61.067,43.881c-1.199,0-2.64,0.238-2.64,1.438c0,0.719,0.48,1.077,1.08,1.077c0.841,0,1.319-0.479,1.56-0.958
	c0-0.119,0-0.359,0-0.359V43.881z"/>
<path fill="#FFFFFF" d="M70.061,37.885v7.672c0,0.48,0,1.203,0,1.563h-1.078v-1.082l0,0c-0.359,0.723-1.2,1.322-2.158,1.322
	c-1.561,0-2.76-1.322-2.76-3.24c0-2.16,1.319-3.479,2.88-3.479c0.958,0,1.556,0.479,1.919,0.96l0,0v-3.715H70.061z M68.864,43.398
	L68.864,43.398c0-0.116,0-0.359,0-0.476c-0.24-0.721-0.841-1.323-1.68-1.323c-1.2,0-1.919,0.962-1.919,2.4
	c0,1.318,0.599,2.396,1.799,2.396c0.84,0,1.561-0.479,1.801-1.437c0-0.12,0-0.24,0-0.48V43.398z"/>
<path fill="#FFFFFF" d="M75.58,47.119c0-0.359,0-1.082,0-1.563v-7.672h1.199v3.955l0,0c0.359-0.722,1.079-1.2,2.159-1.2
	c1.561,0,2.639,1.319,2.639,3.241c0,2.275-1.438,3.479-2.759,3.479c-0.96,0-1.68-0.359-2.159-1.203h-0.119v0.963H75.58z
	 M76.778,44.6L76.778,44.6c0,0.119,0,0.359,0,0.479c0.239,0.719,0.96,1.317,1.798,1.317c1.202,0,1.921-0.958,1.921-2.396
	c0-1.32-0.72-2.4-1.921-2.4c-0.837,0-1.559,0.479-1.798,1.439c0,0.123,0,0.243,0,0.482V44.6z"/>
<path fill="#FFFFFF" d="M84.214,44.24c0,1.557,0.959,2.155,2.158,2.155c0.84,0,1.321-0.12,1.68-0.358l0.239,0.842
	c-0.36,0.24-1.079,0.359-2.159,0.359c-1.919,0-3.118-1.201-3.118-3.119c0-1.917,1.199-3.479,2.998-3.479
	c2.16,0,2.639,1.805,2.639,3.002c0,0.239,0,0.478,0,0.599H84.214z M87.572,43.398L87.572,43.398c0-0.719-0.359-1.919-1.679-1.919
	c-1.078,0-1.679,1.082-1.679,1.919H87.572z"/>
<path fill="#FFFFFF" d="M91.889,38.963v1.796h1.682v0.959h-1.682v3.36c0,0.838,0.242,1.317,0.963,1.317c0.24,0,0.48-0.12,0.6-0.12
	l0.119,0.844c-0.238,0.119-0.602,0.119-1.078,0.119c-0.484,0-0.963-0.119-1.203-0.479c-0.36-0.244-0.479-0.844-0.479-1.563v-3.479
	h-0.96v-0.959h0.96v-1.437L91.889,38.963z"/>
<path fill="#FFFFFF" d="M95.846,40.759L96.689,44c0.24,0.719,0.359,1.438,0.48,2.037h0.119c0.119-0.6,0.359-1.318,0.479-2.037
	l1.078-3.241h0.961L100.766,44c0.238,0.719,0.48,1.438,0.6,2.037l0,0c0.123-0.6,0.361-1.318,0.6-2.037l0.84-3.241h1.199l-2.039,6.36
	h-1.08l-0.961-3c-0.238-0.721-0.48-1.316-0.6-2.04l0,0c-0.24,0.724-0.359,1.319-0.6,2.04l-1.076,3h-0.959l-1.922-6.36H95.846z"/>
<path fill="#FFFFFF" d="M106.045,44.24c0,1.557,1.078,2.155,2.154,2.155c0.842,0,1.32-0.12,1.799-0.358l0.244,0.842
	c-0.482,0.24-1.084,0.359-2.162,0.359c-1.918,0-3.119-1.201-3.119-3.119c0-1.917,1.084-3.479,3-3.479
	c2.037,0,2.641,1.805,2.641,3.002c0,0.239,0,0.478-0.121,0.599H106.045z M109.4,43.398L109.4,43.398
	c0.119-0.719-0.242-1.919-1.559-1.919c-1.199,0-1.68,1.082-1.797,1.919H109.4z"/>
<path fill="#FFFFFF" d="M113.117,44.24c0,1.557,0.959,2.155,2.162,2.155c0.838,0,1.316-0.12,1.797-0.358l0.119,0.842
	c-0.359,0.24-1.078,0.359-2.037,0.359c-2.041,0-3.119-1.201-3.119-3.119c0-1.917,1.078-3.479,2.881-3.479
	c2.156,0,2.635,1.805,2.635,3.002c0,0.239,0,0.478,0,0.599H113.117z M116.477,43.398L116.477,43.398c0-0.719-0.24-1.919-1.557-1.919
	c-1.203,0-1.682,1.082-1.803,1.919H116.477z"/>
<path fill="#FFFFFF" d="M119.475,42.562c0-0.722,0-1.203-0.119-1.803h1.078l0.123,1.081l0,0c0.238-0.6,1.076-1.2,2.035-1.2
	c0.963,0,2.281,0.479,2.281,2.759v3.721h-1.199v-3.598c0-1.077-0.363-1.922-1.441-1.922c-0.719,0-1.316,0.603-1.557,1.203
	c0,0.12,0,0.359,0,0.479v3.837h-1.201V42.562z"/>
<path fill="#FFFFFF" d="M131.826,38.963v1.796h1.684v0.959h-1.684v3.36c0,0.838,0.24,1.317,0.844,1.317
	c0.359,0,0.598-0.12,0.719-0.12v0.844c-0.238,0.119-0.598,0.119-0.963,0.119c-0.6,0-1.078-0.119-1.318-0.479
	c-0.357-0.244-0.479-0.844-0.479-1.563v-3.479h-0.957v-0.959h0.957v-1.437L131.826,38.963z"/>
<path fill="#FFFFFF" d="M135.186,37.885h1.199v3.955l0,0c0.238-0.36,0.48-0.722,0.842-0.841c0.359-0.24,0.719-0.359,1.199-0.359
	c0.84,0,2.156,0.479,2.156,2.759v3.721h-1.078v-3.598c0-1.077-0.359-1.922-1.559-1.922c-0.719,0-1.322,0.479-1.561,1.203
	c0,0.12,0,0.236,0,0.479v3.837h-1.199V37.885z"/>
<path fill="#FFFFFF" d="M143.582,44.24c0,1.557,1.078,2.155,2.156,2.155c0.842,0,1.324-0.12,1.801-0.358l0.242,0.842
	c-0.48,0.24-1.201,0.359-2.162,0.359c-1.918,0-3.115-1.201-3.115-3.119c0-1.917,1.078-3.479,2.994-3.479
	c2.041,0,2.643,1.805,2.643,3.002c0,0.239-0.121,0.478-0.121,0.599H143.582z M146.939,43.398L146.939,43.398
	c0-0.719-0.238-1.919-1.559-1.919c-1.199,0-1.68,1.082-1.799,1.919H146.939z"/>
<rect x="153.176" y="37.885" fill="#FFFFFF" width="1.197" height="9.234"/>
<path fill="#FFFFFF" d="M157.973,38.963c0,0.479-0.238,0.719-0.719,0.719c-0.359,0-0.719-0.239-0.719-0.719
	c0-0.359,0.359-0.719,0.719-0.719C157.734,38.244,157.973,38.604,157.973,38.963L157.973,38.963z M156.775,47.119L156.775,47.119
	v-6.36h1.078v6.36H156.775z"/>
<path fill="#FFFFFF" d="M160.254,42.562c0-0.722,0-1.203-0.119-1.803h1.078l0.119,1.081l0,0c0.24-0.6,1.078-1.2,2.035-1.2
	c0.965,0,2.283,0.479,2.283,2.759v3.721h-1.199v-3.598c0-1.077-0.359-1.922-1.443-1.922c-0.719,0-1.316,0.603-1.557,1.203
	c0,0.12,0,0.359,0,0.479v3.837h-1.197V42.562z"/>
<path fill="#FFFFFF" d="M168.65,44.24c0,1.557,0.959,2.155,2.156,2.155c0.838,0,1.318-0.12,1.795-0.358l0.127,0.842
	c-0.365,0.24-1.084,0.359-2.041,0.359c-2.037,0-3.121-1.201-3.121-3.119c0-1.917,1.084-3.479,2.881-3.479
	c2.154,0,2.641,1.805,2.641,3.002c0,0.239,0,0.478,0,0.599H168.65z M172.004,43.398L172.004,43.398c0-0.719-0.359-1.919-1.557-1.919
	s-1.678,1.082-1.797,1.919H172.004z"/>
<path fill="#FFFFFF" d="M174.885,46.037c0.24,0.119,0.838,0.358,1.438,0.358c0.84,0,1.322-0.358,1.322-0.958
	c0-0.479-0.359-0.838-1.201-1.078c-1.199-0.479-1.678-1.077-1.678-1.798c0-1.082,0.838-1.922,2.156-1.922
	c0.604,0,1.203,0.24,1.563,0.359l-0.24,0.841c-0.24-0.122-0.719-0.36-1.322-0.36c-0.719,0-1.078,0.479-1.078,0.965
	c0,0.479,0.359,0.718,1.197,1.077c1.084,0.359,1.682,0.957,1.682,1.916c0,1.078-0.838,1.801-2.4,1.801
	c-0.719,0-1.316-0.119-1.797-0.359L174.885,46.037z"/>
</svg>
